<?xml version="1.0" encoding="UTF-8" standalone="no"?>
<!-- Created with Inkscape (http://www.inkscape.org/) -->

<svg
   xmlns:dc="http://purl.org/dc/elements/1.1/"
   xmlns:cc="http://creativecommons.org/ns#"
   xmlns:rdf="http://www.w3.org/1999/02/22-rdf-syntax-ns#"
   xmlns:svg="http://www.w3.org/2000/svg"
   xmlns="http://www.w3.org/2000/svg"
   xmlns:sodipodi="http://sodipodi.sourceforge.net/DTD/sodipodi-0.dtd"
   xmlns:inkscape="http://www.inkscape.org/namespaces/inkscape"
   width="297mm"
   height="210mm"
   viewBox="0 0 297 210"
   version="1.1"
   id="svg8"
   inkscape:version="0.92.2 (5c3e80d, 2017-08-06)"
   sodipodi:docname="1111.svg">
  <defs
     id="defs2">
    <inkscape:path-effect
       effect="spiro"
       id="path-effect1044"
       is_visible="true" />
    <inkscape:path-effect
       effect="spiro"
       id="path-effect1040"
       is_visible="true" />
    <inkscape:path-effect
       effect="spiro"
       id="path-effect962"
       is_visible="true" />
    <filter
       inkscape:collect="always"
       style="color-interpolation-filters:sRGB"
       id="filter1271"
       x="-0.025600565"
       width="1.0512011"
       y="-0.15099779"
       height="1.3019956">
      <feGaussianBlur
         inkscape:collect="always"
         stdDeviation="4.4238724"
         id="feGaussianBlur1273" />
    </filter>
  </defs>
  <sodipodi:namedview
     id="base"
     pagecolor="#ffffff"
     bordercolor="#666666"
     borderopacity="1.0"
     inkscape:pageopacity="0.0"
     inkscape:pageshadow="2"
     inkscape:zoom="0.66161843"
     inkscape:cx="596.84967"
     inkscape:cy="317.58218"
     inkscape:document-units="mm"
     inkscape:current-layer="layer1"
     showgrid="false"
     inkscape:window-width="1366"
     inkscape:window-height="705"
     inkscape:window-x="-8"
     inkscape:window-y="-8"
     inkscape:window-maximized="1" />
  <metadata
     id="metadata5">
    <rdf:RDF>
      <cc:Work
         rdf:about="">
        <dc:format>image/svg+xml</dc:format>
        <dc:type
           rdf:resource="http://purl.org/dc/dcmitype/StillImage" />
        <dc:title></dc:title>
      </cc:Work>
    </rdf:RDF>
  </metadata>
  <g
     inkscape:label="Capa 1"
     inkscape:groupmode="layer"
     id="layer1"
     transform="translate(0,-87)">
    <g
       aria-label="Feliz Año"
       transform="matrix(0.80523679,0.03055447,-0.28711886,0.2415153,46.465456,125.32486)"
       style="font-style:normal;font-variant:normal;font-weight:normal;font-stretch:normal;font-size:56.00422287px;line-height:1.25;font-family:'Swis721 Blk BT';-inkscape-font-specification:'Swis721 Blk BT';letter-spacing:0px;word-spacing:0px;fill:#000000;fill-opacity:1;stroke:none;stroke-width:0.58687747;filter:url(#filter1271)"
       id="text968-3-3">
      <path
         inkscape:connector-curvature="0"
         d="M 59.956975,139.2489 V 98.96852 h 30.463234 v 10.1453 H 72.891544 v 6.23484 h 13.946364 v 9.73511 H 72.891544 v 14.16513 z"
         style="font-style:normal;font-variant:normal;font-weight:normal;font-stretch:normal;font-family:'Swis721 Blk BT';-inkscape-font-specification:'Swis721 Blk BT';fill:#000000;stroke-width:0.58687747"
         id="path1021-8" />
      <path
         inkscape:connector-curvature="0"
         d="m 103.9017,121.03659 h 10.52813 q -0.19142,-2.76193 -1.53136,-4.12922 -1.33995,-1.39463 -3.85576,-1.39463 -2.3244,0 -3.69169,1.47667 -1.33994,1.44933 -1.44932,4.04718 z m 9.89918,9.40696 h 11.32117 q -1.23057,4.86755 -5.41448,7.38337 -4.15656,2.48847 -10.99301,2.48847 -7.65683,0 -12.168888,-4.2386 -4.484714,-4.26595 -4.484714,-11.4579 0,-7.49275 4.594097,-11.81339 4.594095,-4.34798 12.497035,-4.34798 7.93029,0 12.415,4.73082 4.51206,4.70348 4.51206,13.0713 v 0.71099 l -22.17745,0.0273 q 0.082,2.84396 1.50401,4.40267 1.42199,1.53137 3.96515,1.53137 1.72278,0 2.87131,-0.62895 1.14852,-0.6563 1.55871,-1.85952 z"
         style="font-style:normal;font-variant:normal;font-weight:normal;font-stretch:normal;font-family:'Swis721 Blk BT';-inkscape-font-specification:'Swis721 Blk BT';fill:#000000;stroke-width:0.58687747"
         id="path1023-0" />
      <path
         inkscape:connector-curvature="0"
         d="M 131.27485,139.2489 V 98.96852 h 11.92278 v 40.28038 z"
         style="font-style:normal;font-variant:normal;font-weight:normal;font-stretch:normal;font-family:'Swis721 Blk BT';-inkscape-font-specification:'Swis721 Blk BT';fill:#000000;stroke-width:0.58687747"
         id="path1025-8" />
      <path
         inkscape:connector-curvature="0"
         d="m 150.19815,106.48862 v -8.504549 h 11.92278 v 8.504549 z m 0,32.76028 V 109.524 h 11.92278 v 29.7249 z"
         style="font-style:normal;font-variant:normal;font-weight:normal;font-stretch:normal;font-family:'Swis721 Blk BT';-inkscape-font-specification:'Swis721 Blk BT';fill:#000000;stroke-width:0.58687747"
         id="path1027-4" />
      <path
         inkscape:connector-curvature="0"
         d="m 166.38687,139.2489 v -8.01232 l 13.53618,-13.04395 H 167.56274 V 109.524 h 26.30667 v 7.93029 l -13.20802,13.12599 h 13.89167 v 8.66862 z"
         style="font-style:normal;font-variant:normal;font-weight:normal;font-stretch:normal;font-family:'Swis721 Blk BT';-inkscape-font-specification:'Swis721 Blk BT';fill:#000000;stroke-width:0.58687747"
         id="path1029-0" />
      <path
         inkscape:connector-curvature="0"
         d="m 230.56749,125.46661 h 8.1217 l -4.01983,-13.94636 z m -16.62626,13.78229 14.16513,-40.28038 h 13.09865 l 14.16513,40.28038 h -12.82519 l -1.50402,-5.33243 h -12.82518 l -1.55871,5.33243 z"
         style="font-style:normal;font-variant:normal;font-weight:normal;font-stretch:normal;font-family:'Swis721 Blk BT';-inkscape-font-specification:'Swis721 Blk BT';fill:#000000;stroke-width:0.58687747"
         id="path1031-1" />
      <path
         d="M 258.43288,139.2489 V 109.524 h 10.74691 v 4.34799 c 1.38552,-1.7319 2.926,-3.01715 4.62144,-3.85576 1.71367,-0.85683 3.6461,-1.28525 5.79731,-1.28525 1.80483,0 3.41823,0.3008 4.84021,0.90241 1.42198,0.60161 2.6252,1.4949 3.60965,2.67989 0.89329,1.0756 1.52225,2.3882 1.88686,3.93779 0.38284,1.53137 0.57426,4.04718 0.57426,7.54745 v 15.45038 h -11.81339 v -15.39569 c 0,-2.26059 -0.3008,-3.81018 -0.90241,-4.64879 -0.60161,-0.85683 -1.64076,-1.28525 -3.11743,-1.28525 -1.4949,0 -2.60696,0.49222 -3.33619,1.47667 -0.72922,0.98445 -1.09383,2.48847 -1.09383,4.51206 v 12.99209 2.34891 z M 283.4543,97.081659 c -0.54692,2.406434 -1.30349,4.165681 -2.2697,5.277741 -0.94799,1.11207 -2.18767,1.6681 -3.71903,1.6681 -0.40107,0 -0.7748,-0.0182 -1.12118,-0.0547 -0.32815,-0.0547 -0.6563,-0.1367 -0.98445,-0.24611 l -2.48847,-0.71099 c -0.4193,-0.10938 -0.78391,-0.19142 -1.09383,-0.24611 -0.30992,-0.0547 -0.56515,-0.082 -0.76569,-0.082 -0.61983,0 -1.12117,0.16408 -1.50401,0.49223 -0.38285,0.30991 -0.70188,0.82948 -0.95711,1.55871 h -3.25415 c 0.51045,-2.27882 1.23968,-3.96515 2.18767,-5.058979 0.96621,-1.093832 2.19677,-1.640748 3.69168,-1.640748 0.29169,0 0.63807,0.03646 1.03914,0.109383 0.40107,0.07292 0.87507,0.182305 1.42198,0.32815 l 2.59785,0.738337 c 0.21877,0.07292 0.45577,0.127614 0.711,0.164075 0.25523,0.03646 0.5378,0.05469 0.84772,0.05469 0.60161,0 1.10295,-0.200536 1.50402,-0.601608 0.40107,-0.401072 0.70187,-0.984449 0.90241,-1.750132 z"
         style="font-style:normal;font-variant:normal;font-weight:normal;font-stretch:normal;font-family:'Swis721 Blk BT';-inkscape-font-specification:'Swis721 Blk BT';fill:#000000;stroke-width:0.58687747"
         id="path1033-3"
         inkscape:connector-curvature="0"
         sodipodi:nodetypes="cccccssccsccscscscccccsccccsccccsscccsccc" />
      <path
         inkscape:connector-curvature="0"
         d="m 307.08108,124.34543 q 0,4.12922 1.12118,5.93405 1.14852,1.80482 3.74637,1.80482 2.59785,0 3.74638,-1.80482 1.17587,-1.83217 1.17587,-5.93405 0,-4.07452 -1.17587,-5.852 -1.14853,-1.80482 -3.74638,-1.80482 -2.59785,0 -3.74637,1.77747 -1.12118,1.77748 -1.12118,5.87935 z m -11.95012,0 q 0,-7.38337 4.48471,-11.62197 4.48471,-4.26594 12.33296,-4.26594 7.84825,0 12.30562,4.26594 4.48471,4.2386 4.48471,11.62197 0,7.43806 -4.48471,11.70401 -4.48472,4.26595 -12.30562,4.26595 -7.8209,0 -12.33296,-4.26595 -4.48471,-4.26595 -4.48471,-11.70401 z"
         style="font-style:normal;font-variant:normal;font-weight:normal;font-stretch:normal;font-family:'Swis721 Blk BT';-inkscape-font-specification:'Swis721 Blk BT';fill:#000000;stroke-width:0.58687747"
         id="path1035-5" />
    </g>
    <g
       aria-label="Feliz Año"
       transform="matrix(0.83646701,0,0,1.1955044,22.922465,0)"
       style="font-style:normal;font-variant:normal;font-weight:normal;font-stretch:normal;font-size:56.00422668px;line-height:1.25;font-family:'Swis721 Blk BT';-inkscape-font-specification:'Swis721 Blk BT';letter-spacing:0px;word-spacing:0px;fill:#000000;fill-opacity:1;stroke:none;stroke-width:0.26458329"
       id="text968">
      <path
         d="M 45.487636,139.2489 32.553067,98.96852 36.327008,96.720211 h 30.463237 v 10.145299 l -4.067098,2.1865 c -6.813117,-4.09467 -13.307273,-4.01815 -13.314605,0.0666 -0.002,1.09785 -0.259844,2.42442 -0.146964,3.98175 h 13.946365 v 9.73511 L 59.434,125.08377 49.261578,122.83546 v 14.16514 z"
         style="font-style:normal;font-variant:normal;font-weight:normal;font-stretch:normal;font-family:'Swis721 Blk BT';-inkscape-font-specification:'Swis721 Blk BT';stroke-width:0.26458329"
         id="path1004"
         inkscape:connector-curvature="0"
         sodipodi:nodetypes="ccccccsccccccc" />
      <path
         d="m 80.271729,118.78828 h 10.528139 c -0.127614,-1.84128 -0.638069,-3.21768 -1.531366,-4.12921 -0.893297,-0.92976 -2.17855,-1.39464 -3.85576,-1.39464 -1.549596,0 -2.780158,0.49222 -3.691685,1.47667 -0.893297,0.96622 -1.376406,2.31528 -1.449328,4.04718 z m 9.899185,9.40696 h 11.321166 c -0.82037,3.24504 -2.625197,5.70616 -5.41447,7.38337 -2.771043,1.65898 -6.435382,2.48847 -10.993018,2.48847 -5.104551,0 -9.160847,-1.41287 -12.168887,-4.2386 -2.989809,-2.84397 -4.484713,-6.66327 -4.484713,-11.4579 0,-4.99517 -1.56272,-7.26769 1.500011,-10.14811 3.062731,-2.89866 10.322495,-6.01326 15.591122,-6.01326 5.286857,0 9.425191,1.57694 12.415,4.73082 3.008035,3.13565 4.512055,7.49275 4.512055,13.0713 v 0.71099 l -3.773938,2.24831 -18.403513,-2.22101 c 0.05469,1.89598 0.556033,3.36354 1.50402,4.40268 0.947988,1.02091 2.269702,1.53136 3.965143,1.53136 1.148524,0 2.105627,-0.20965 2.87131,-0.62895 0.765683,-0.43753 -2.488688,1.19099 -2.21523,0.38884 z"
         style="font-style:normal;font-variant:normal;font-weight:normal;font-stretch:normal;font-family:'Swis721 Blk BT';-inkscape-font-specification:'Swis721 Blk BT';stroke-width:0.26458329"
         id="path1006"
         inkscape:connector-curvature="0"
         sodipodi:nodetypes="cccscccccscscscsccccsccc" />
      <path
         d="m 107.64488,137.0006 -3.77394,-38.03208 3.77394,-2.248309 h 11.92278 V 137.0006 l -3.77394,2.2483 z"
         style="font-style:normal;font-variant:normal;font-weight:normal;font-stretch:normal;font-family:'Swis721 Blk BT';-inkscape-font-specification:'Swis721 Blk BT';stroke-width:0.26458329"
         id="path1008"
         inkscape:connector-curvature="0"
         sodipodi:nodetypes="ccccccc" />
      <path
         d="m 126.56819,104.24031 -3.77395,-6.256239 3.77395,-2.248309 h 11.92278 v 8.504548 l -3.77395,2.24831 z m 0,32.76029 -3.77395,-27.4766 3.77395,-2.2483 h 11.92278 v 29.7249 l -3.77395,2.2483 z"
         style="font-style:normal;font-variant:normal;font-weight:normal;font-stretch:normal;font-family:'Swis721 Blk BT';-inkscape-font-specification:'Swis721 Blk BT';stroke-width:0.26458329"
         id="path1010"
         inkscape:connector-curvature="0"
         sodipodi:nodetypes="cccccccscccccs" />
      <path
         d="m 142.75691,137.0006 v -8.01233 l 13.53618,-13.04395 h -12.36031 l -3.77395,-6.42032 3.77395,-2.2483 h 26.30668 v 7.93028 l -13.20803,13.12599 h 13.89167 v 8.66863 l -3.77395,2.2483 z"
         style="font-style:normal;font-variant:normal;font-weight:normal;font-stretch:normal;font-family:'Swis721 Blk BT';-inkscape-font-specification:'Swis721 Blk BT';stroke-width:0.26458329"
         id="path1012"
         inkscape:connector-curvature="0"
         sodipodi:nodetypes="ccccccccccccc" />
      <path
         d="m 206.93754,123.2183 h 8.1217 l -4.01983,-13.94636 z m -16.62626,13.7823 10.39117,-38.03208 3.77396,-2.248309 h 13.09865 l 14.16513,40.280389 -3.77396,2.2483 -9.05123,-2.2483 -1.50402,-5.33244 H 204.5858 l -1.55871,5.33244 -3.77396,2.2483 z"
         style="font-style:normal;font-variant:normal;font-weight:normal;font-stretch:normal;font-family:'Swis721 Blk BT';-inkscape-font-specification:'Swis721 Blk BT';stroke-width:0.26458329"
         id="path1014"
         inkscape:connector-curvature="0"
         sodipodi:nodetypes="cccccccccccccccc" />
      <path
         d="m 234.80293,137.0006 -3.77396,-27.4766 3.77396,-2.2483 h 10.7469 v 4.34798 c 1.38553,-1.7319 2.92601,-3.01715 4.62145,-3.85576 1.71367,-0.85683 3.6461,-1.28525 5.79731,-1.28525 1.80483,0 3.41823,0.3008 4.84021,0.90241 1.42198,0.60161 2.6252,1.4949 3.60965,2.67989 0.89329,1.0756 1.52225,2.3882 1.88686,3.9378 0.38284,1.53136 0.57426,4.04717 0.57426,7.54744 v 15.45039 l -3.77396,2.2483 -8.03943,-2.2483 v -15.3957 c 0,-2.26059 -0.3008,-3.81018 -0.90241,-4.64879 -0.60161,-0.85683 -1.64076,-1.28525 -3.11743,-1.28525 -1.4949,0 -2.60696,0.49222 -3.33619,1.47667 -0.72922,0.98445 -1.09383,2.48847 -1.09383,4.51206 v 15.34101 l -3.77396,2.2483 z m 25.02142,-42.16725 c -0.54691,2.406432 -1.30348,4.165679 -2.2697,5.27774 -0.94799,1.11207 -4.94648,3.68815 -6.47784,3.68815 -0.40107,0 1.98401,-2.03825 1.63763,-2.07475 -0.32815,-0.0547 -0.6563,-0.13671 -0.98445,-0.24612 l -2.48847,-0.71099 c -0.4193,-0.10938 -0.78391,-0.19142 -1.09383,-0.24611 -0.30992,-0.0547 -0.56515,-0.082 -0.76569,-0.082 -0.61983,0 -1.12117,0.16408 -1.50402,0.49223 -0.38284,0.30992 -0.70187,0.82949 -0.9571,1.55871 h -3.25415 c -1.15,-2.27882 -1.56221,-0.81279 -1.09015,-3.308263 0.96622,-1.093833 5.47459,-3.391463 6.9695,-3.391463 0.29169,0 0.63807,0.03646 1.03914,0.109383 0.40107,0.07292 0.87507,0.182305 1.42198,0.32815 l 2.59785,0.738337 c 0.21877,0.07292 0.45577,0.127614 0.711,0.164075 0.25523,0.03646 0.5378,0.05469 0.84772,0.05469 0.60161,0 -1.7686,0.297651 -1.36753,-0.103421 0.3556,-0.401072 2.70775,-1.482636 3.77396,-2.248319 z"
         style="font-style:normal;font-variant:normal;font-weight:normal;font-stretch:normal;font-family:'Swis721 Blk BT';-inkscape-font-specification:'Swis721 Blk BT';stroke-width:0.26458329"
         id="path1016"
         inkscape:connector-curvature="0"
         sodipodi:nodetypes="ccccccssccscccscscscccccsccccsccccsscccsccc" />
      <path
         d="m 283.45113,122.09713 c 0,2.75281 0.37373,4.73082 1.12118,5.93404 0.76568,1.20321 2.01447,1.80482 3.74637,1.80482 1.7319,0 2.98069,-0.60161 3.74638,-1.80482 0.78391,-1.22145 1.17587,-3.19946 1.17587,-5.93404 0,-2.71635 -0.39196,-4.66702 -1.17587,-5.85201 -0.76569,-1.20321 -2.01448,-1.80482 -3.74638,-1.80482 -1.7319,0 -2.98069,0.59249 -3.74637,1.77748 -0.74745,1.18498 -1.12118,3.14476 -1.12118,5.87935 z m -11.95012,0 c 0,-4.92225 -1.23995,-7.49778 1.74985,-10.32351 2.98981,-2.84397 9.83565,-5.56441 15.06782,-5.56441 5.23217,0 9.33404,1.42198 12.30562,4.26595 2.98981,2.82573 4.48471,6.69972 4.48471,11.62197 0,4.95871 -2.66699,10.02182 -5.65679,12.86578 -2.98981,2.84397 -8.45911,5.29105 -13.67305,5.29105 -5.21393,0 -6.78541,-3.60886 -9.79345,-6.45283 -2.98981,-2.84396 -4.48471,-6.74529 -4.48471,-11.704 z"
         style="font-style:normal;font-variant:normal;font-weight:normal;font-stretch:normal;font-family:'Swis721 Blk BT';-inkscape-font-specification:'Swis721 Blk BT';stroke-width:0.26458329"
         id="path1018"
         inkscape:connector-curvature="0"
         sodipodi:nodetypes="scscscscsscscscscs" />
    </g>
    <g
       aria-label="Feliz Año"
       transform="scale(0.83646701,1.1955044)"
       style="font-style:normal;font-variant:normal;font-weight:normal;font-stretch:normal;font-size:56.00422287px;line-height:1.25;font-family:'Swis721 Blk BT';-inkscape-font-specification:'Swis721 Blk BT';letter-spacing:0px;word-spacing:0px;fill:#0088aa;fill-opacity:1;stroke:none;stroke-width:0.26458329"
       id="text968-3">
      <path
         d="M 59.956975,139.2489 V 98.96852 h 30.463234 v 10.1453 H 72.891544 v 6.23484 h 13.946364 v 9.73511 H 72.891544 v 14.16513 z"
         style="font-style:normal;font-variant:normal;font-weight:normal;font-stretch:normal;font-family:'Swis721 Blk BT';-inkscape-font-specification:'Swis721 Blk BT';fill:#0088aa;stroke-width:0.26458329"
         id="path1021" />
      <path
         d="m 103.9017,121.03659 h 10.52813 q -0.19142,-2.76193 -1.53136,-4.12922 -1.33995,-1.39463 -3.85576,-1.39463 -2.3244,0 -3.69169,1.47667 -1.33994,1.44933 -1.44932,4.04718 z m 9.89918,9.40696 h 11.32117 q -1.23057,4.86755 -5.41448,7.38337 -4.15656,2.48847 -10.99301,2.48847 -7.65683,0 -12.168888,-4.2386 -4.484714,-4.26595 -4.484714,-11.4579 0,-7.49275 4.594097,-11.81339 4.594095,-4.34798 12.497035,-4.34798 7.93029,0 12.415,4.73082 4.51206,4.70348 4.51206,13.0713 v 0.71099 l -22.17745,0.0273 q 0.082,2.84396 1.50401,4.40267 1.42199,1.53137 3.96515,1.53137 1.72278,0 2.87131,-0.62895 1.14852,-0.6563 1.55871,-1.85952 z"
         style="font-style:normal;font-variant:normal;font-weight:normal;font-stretch:normal;font-family:'Swis721 Blk BT';-inkscape-font-specification:'Swis721 Blk BT';fill:#0088aa;stroke-width:0.26458329"
         id="path1023" />
      <path
         d="M 131.27485,139.2489 V 98.96852 h 11.92278 v 40.28038 z"
         style="font-style:normal;font-variant:normal;font-weight:normal;font-stretch:normal;font-family:'Swis721 Blk BT';-inkscape-font-specification:'Swis721 Blk BT';fill:#0088aa;stroke-width:0.26458329"
         id="path1025" />
      <path
         d="m 150.19815,106.48862 v -8.504549 h 11.92278 v 8.504549 z m 0,32.76028 V 109.524 h 11.92278 v 29.7249 z"
         style="font-style:normal;font-variant:normal;font-weight:normal;font-stretch:normal;font-family:'Swis721 Blk BT';-inkscape-font-specification:'Swis721 Blk BT';fill:#0088aa;stroke-width:0.26458329"
         id="path1027" />
      <path
         d="m 166.38687,139.2489 v -8.01232 l 13.53618,-13.04395 H 167.56274 V 109.524 h 26.30667 v 7.93029 l -13.20802,13.12599 h 13.89167 v 8.66862 z"
         style="font-style:normal;font-variant:normal;font-weight:normal;font-stretch:normal;font-family:'Swis721 Blk BT';-inkscape-font-specification:'Swis721 Blk BT';fill:#0088aa;stroke-width:0.26458329"
         id="path1029" />
      <path
         d="m 230.56749,125.46661 h 8.1217 l -4.01983,-13.94636 z m -16.62626,13.78229 14.16513,-40.28038 h 13.09865 l 14.16513,40.28038 h -12.82519 l -1.50402,-5.33243 h -12.82518 l -1.55871,5.33243 z"
         style="font-style:normal;font-variant:normal;font-weight:normal;font-stretch:normal;font-family:'Swis721 Blk BT';-inkscape-font-specification:'Swis721 Blk BT';fill:#0088aa;stroke-width:0.26458329"
         id="path1031" />
      <path
         d="M 258.43288,139.2489 V 109.524 h 10.74691 v 4.34799 c 1.38552,-1.7319 2.926,-3.01715 4.62144,-3.85576 1.71367,-0.85683 3.6461,-1.28525 5.79731,-1.28525 1.80483,0 3.41823,0.3008 4.84021,0.90241 1.42198,0.60161 2.6252,1.4949 3.60965,2.67989 0.89329,1.0756 1.52225,2.3882 1.88686,3.93779 0.38284,1.53137 0.57426,4.04718 0.57426,7.54745 v 15.45038 h -11.81339 v -15.39569 c 0,-2.26059 -0.3008,-3.81018 -0.90241,-4.64879 -0.60161,-0.85683 -1.64076,-1.28525 -3.11743,-1.28525 -1.4949,0 -2.60696,0.49222 -3.33619,1.47667 -0.72922,0.98445 -1.09383,2.48847 -1.09383,4.51206 v 12.99209 2.34891 z M 283.4543,97.081659 c -0.54692,2.406434 -1.30349,4.165681 -2.2697,5.277741 -0.94799,1.11207 -2.18767,1.6681 -3.71903,1.6681 -0.40107,0 -0.7748,-0.0182 -1.12118,-0.0547 -0.32815,-0.0547 -0.6563,-0.1367 -0.98445,-0.24611 l -2.48847,-0.71099 c -0.4193,-0.10938 -0.78391,-0.19142 -1.09383,-0.24611 -0.30992,-0.0547 -0.56515,-0.082 -0.76569,-0.082 -0.61983,0 -1.12117,0.16408 -1.50401,0.49223 -0.38285,0.30991 -0.70188,0.82948 -0.95711,1.55871 h -3.25415 c 0.51045,-2.27882 1.23968,-3.96515 2.18767,-5.058979 0.96621,-1.093832 2.19677,-1.640748 3.69168,-1.640748 0.29169,0 0.63807,0.03646 1.03914,0.109383 0.40107,0.07292 0.87507,0.182305 1.42198,0.32815 l 2.59785,0.738337 c 0.21877,0.07292 0.45577,0.127614 0.711,0.164075 0.25523,0.03646 0.5378,0.05469 0.84772,0.05469 0.60161,0 1.10295,-0.200536 1.50402,-0.601608 0.40107,-0.401072 0.70187,-0.984449 0.90241,-1.750132 z"
         style="font-style:normal;font-variant:normal;font-weight:normal;font-stretch:normal;font-family:'Swis721 Blk BT';-inkscape-font-specification:'Swis721 Blk BT';fill:#0088aa;stroke-width:0.26458329"
         id="path1033"
         inkscape:connector-curvature="0"
         sodipodi:nodetypes="cccccssccsccscscscccccsccccsccccsscccsccc" />
      <path
         d="m 307.08108,124.34543 q 0,4.12922 1.12118,5.93405 1.14852,1.80482 3.74637,1.80482 2.59785,0 3.74638,-1.80482 1.17587,-1.83217 1.17587,-5.93405 0,-4.07452 -1.17587,-5.852 -1.14853,-1.80482 -3.74638,-1.80482 -2.59785,0 -3.74637,1.77747 -1.12118,1.77748 -1.12118,5.87935 z m -11.95012,0 q 0,-7.38337 4.48471,-11.62197 4.48471,-4.26594 12.33296,-4.26594 7.84825,0 12.30562,4.26594 4.48471,4.2386 4.48471,11.62197 0,7.43806 -4.48471,11.70401 -4.48472,4.26595 -12.30562,4.26595 -7.8209,0 -12.33296,-4.26595 -4.48471,-4.26595 -4.48471,-11.70401 z"
         style="font-style:normal;font-variant:normal;font-weight:normal;font-stretch:normal;font-family:'Swis721 Blk BT';-inkscape-font-specification:'Swis721 Blk BT';fill:#0088aa;stroke-width:0.26458329"
         id="path1035" />
    </g>
    <path
       style="opacity:1;fill:#00aad4;fill-opacity:1;fill-rule:nonzero;stroke:none;stroke-width:5.91496086;stroke-linecap:butt;stroke-linejoin:miter;stroke-miterlimit:4;stroke-dasharray:none;stroke-dashoffset:0;stroke-opacity:1;paint-order:stroke fill markers"
       d="m 190.03706,208.60993 v -22.37156 l 31.57467,-33.67811 31.57466,-33.67812 h 16.58448 16.58448 l -0.5525,5.43408 c -0.84982,8.35817 -2.32566,12.34001 -4.15476,11.20957 -0.49295,-0.30466 -6.91627,5.84689 -14.27405,13.67011 l -13.37777,14.22404 -11.67329,0.32544 -11.6733,0.32545 -0.32741,12.56481 c -0.30315,11.63373 -0.54038,12.7871 -3.2013,15.5645 -1.58063,1.64983 -2.72032,3.69438 -2.53263,4.54345 0.18769,0.84907 -0.43096,1.59056 -1.37477,1.64776 -0.94382,0.0572 -1.57457,0.76238 -1.40168,1.56706 0.17289,0.80468 -0.12664,1.19051 -0.66563,0.85739 -1.35335,-0.83641 -12.09374,10.24989 -11.25105,11.6134 0.37412,0.60533 -0.33727,2.0214 -1.58085,3.14683 -1.24358,1.12542 -2.26106,1.59968 -2.26106,1.05391 0,-0.54577 -2.57196,1.54097 -5.71547,4.63722 -3.14352,3.09624 -5.58885,6.36253 -5.43409,7.25842 0.1593,0.92208 -0.83553,1.80832 -2.29264,2.0424 l -2.57404,0.41351 z m 18.4502,5.51166 c 1.42301,-1.81448 1.38255,-1.85494 -0.43192,-0.43193 -1.90565,1.49451 -2.51167,2.43396 -1.57011,2.43396 0.23757,0 1.13848,-0.90091 2.00203,-2.00203 z"
       id="path1046"
       inkscape:connector-curvature="0"
       transform="matrix(0.26458333,0,0,0.26458333,0,87)" />
    <path
       style="opacity:1;fill:#00aad4;fill-opacity:1;fill-rule:nonzero;stroke:none;stroke-width:5.91496086;stroke-linecap:butt;stroke-linejoin:miter;stroke-miterlimit:4;stroke-dasharray:none;stroke-dashoffset:0;stroke-opacity:1;paint-order:stroke fill markers"
       d="m 295.9138,265.95215 c -2.34496,-6.63248 -3.70248,-17.34532 -3.73454,-29.471 l -0.0369,-13.97868 34.35885,-29.3325 34.35885,-29.3325 4.56086,2.34832 c 2.50848,1.29157 6.7905,4.04321 9.5156,6.11475 4.63262,3.52157 4.79495,3.943 2.49697,6.48225 -1.35178,1.49369 -2.06711,3.34791 -1.58963,4.12049 0.47748,0.77258 -0.47612,2.62123 -2.1191,4.10811 -1.64299,1.48688 -2.98725,2.15252 -2.98725,1.47919 0,-0.67333 -1.36495,0.011 -3.03321,1.52078 -1.66827,1.50976 -2.85853,3.61103 -2.64503,4.66948 0.2135,1.05845 -0.0174,1.79902 -0.5131,1.64571 -0.49571,-0.15331 -2.04599,0.67127 -3.44506,1.83241 -2.22283,1.84478 -3.02654,1.65761 -6.37005,-1.48345 -4.36005,-4.09605 -13.9659,-4.72815 -18.22981,-1.19959 -3.43529,2.84285 -8.01052,13.26018 -8.05102,18.33137 -0.0313,3.92348 0.34808,4.15647 6.76831,4.15647 6.45473,0 8.19748,1.12311 5.66792,3.65266 -0.62347,0.62347 -1.13358,1.75706 -1.13358,2.51908 0,0.76202 -0.43871,1.21545 -0.9749,1.00763 -1.78413,-0.69151 -7.45589,5.44792 -6.74481,7.30096 0.38492,1.00308 -0.9514,3.37504 -2.96959,5.27103 -2.01819,1.89599 -3.66943,2.8832 -3.66943,2.19381 0,-0.68939 -1.38429,-6.8e-4 -3.07619,1.53047 -1.69191,1.53116 -2.75801,3.61312 -2.3691,4.62659 0.3889,1.01346 -0.60734,3.0322 -2.21387,4.48609 -1.60652,1.45389 -2.92096,2.09253 -2.92096,1.4192 0,-0.67333 -1.38428,0.0285 -3.07619,1.55968 -1.69191,1.53116 -2.758,3.61312 -2.3691,4.62659 0.75491,1.96727 -4.08313,7.20889 -5.41996,5.87206 -0.43755,-0.43755 -1.6559,0.24112 -2.70744,1.50815 -2.31977,2.79516 -4.42779,2.95912 -5.3275,0.41439 z m 11.53576,-5.29006 c 1.88004,-2.39724 1.82658,-2.4507 -0.57065,-0.57065 -1.45477,1.1409 -2.64503,2.33116 -2.64503,2.64503 0,1.24397 1.24117,0.44331 3.21568,-2.07438 z m 10.58012,-12.09156 c 1.88004,-2.39724 1.82658,-2.4507 -0.57066,-0.57066 -1.45476,1.14091 -2.64503,2.33117 -2.64503,2.64503 0,1.24397 1.24118,0.44332 3.21569,-2.07437 z m 11.14304,-12.46942 c 1.50463,-1.66259 2.39561,-3.02289 1.97996,-3.02289 -0.41565,0 -1.98678,1.3603 -3.4914,3.02289 -1.50462,1.66259 -2.3956,3.02289 -1.97996,3.02289 0.41565,0 1.98678,-1.3603 3.4914,-3.02289 z m 44.78043,-51.01128 c 1.88004,-2.39724 1.82658,-2.4507 -0.57065,-0.57065 -2.51769,1.9745 -3.31835,3.21568 -2.07438,3.21568 0.31386,0 1.50412,-1.19026 2.64503,-2.64503 z"
       id="path1162"
       inkscape:connector-curvature="0"
       transform="matrix(0.26458333,0,0,0.26458333,0,87)" />
    <path
       style="opacity:1;fill:#00aad4;fill-opacity:1;fill-rule:nonzero;stroke:none;stroke-width:5.91496086;stroke-linecap:butt;stroke-linejoin:miter;stroke-miterlimit:4;stroke-dasharray:none;stroke-dashoffset:0;stroke-opacity:1;paint-order:stroke fill markers"
       d="M 416.08082,161.17408 V 137.6362 l 8.58135,-9.71391 8.58135,-9.71391 h 9.65019 9.65019 l -0.47206,20.78237 c -0.39109,17.21803 -0.86089,20.79416 -2.73922,20.85108 -1.24695,0.0378 -2.10529,0.86349 -1.90744,1.83491 0.19785,0.97141 -0.50832,1.43311 -1.56927,1.02598 -1.06094,-0.40712 -3.94342,1.47714 -6.40551,4.18724 -3.68752,4.05899 -3.81052,4.39884 -0.6979,1.92821 l 3.77861,-2.99927 -2.78704,3.29883 c -1.53287,1.81435 -3.59934,2.98711 -4.59215,2.60613 -0.99281,-0.38098 -3.81955,1.52467 -6.28163,4.23477 -3.68752,4.05899 -3.81053,4.39884 -0.69791,1.92821 l 3.77862,-2.99927 -2.78704,3.29883 c -1.53287,1.81435 -3.63439,2.97366 -4.67004,2.57624 -1.03566,-0.39742 -2.75541,0.3286 -3.82168,1.61338 -1.06626,1.28477 -2.53553,2.33595 -3.26504,2.33595 -0.72951,0 -1.32638,-10.59205 -1.32638,-23.53789 z"
       id="path1164"
       inkscape:connector-curvature="0"
       transform="matrix(0.26458333,0,0,0.26458333,0,87)" />
    <path
       style="opacity:1;fill:#00aad4;fill-opacity:1;fill-rule:nonzero;stroke:none;stroke-width:5.91496086;stroke-linecap:butt;stroke-linejoin:miter;stroke-miterlimit:4;stroke-dasharray:none;stroke-dashoffset:0;stroke-opacity:1;paint-order:stroke fill markers"
       d="m 416.08082,266.95935 v -14.29723 l 16.90859,-21.88352 c 9.29973,-12.03593 17.46153,-21.88351 18.13734,-21.88351 0.67582,0 1.22876,9.56602 1.22876,21.25781 v 21.25782 l -4.59817,3.8691 c -2.529,2.12801 -4.23527,4.23201 -3.79173,4.67555 1.3575,1.3575 -2.28871,4.73053 -4.2854,3.96433 -1.03079,-0.39556 -3.12693,0.6651 -4.65808,2.35701 -1.53116,1.6919 -2.21987,3.07619 -1.53048,3.07619 0.6894,0 -0.32428,1.67941 -2.25261,3.73203 -1.92834,2.05262 -4.11714,3.35436 -4.86401,2.89277 -1.60059,-0.98922 -6.01654,2.31724 -5.09222,3.81282 0.34891,0.56454 -0.67881,1.12535 -2.28381,1.24625 -2.6931,0.20287 -2.91818,-0.88291 -2.91818,-14.07742 z m 14.35873,5.41644 c 1.50462,-1.66259 2.3956,-3.02289 1.97996,-3.02289 -0.41565,0 -1.98678,1.3603 -3.4914,3.02289 -1.50463,1.66259 -2.39561,3.02289 -1.97996,3.02289 0.41565,0 1.98678,-1.3603 3.4914,-3.02289 z"
       id="path1166"
       inkscape:connector-curvature="0"
       transform="matrix(0.26458333,0,0,0.26458333,0,87)" />
    <path
       style="opacity:1;fill:#00aad4;fill-opacity:1;fill-rule:nonzero;stroke:none;stroke-width:5.91496086;stroke-linecap:butt;stroke-linejoin:miter;stroke-miterlimit:4;stroke-dasharray:none;stroke-dashoffset:0;stroke-opacity:1;paint-order:stroke fill markers"
       d="m 325.88416,301.64109 c -6.94485,-2.46084 -20.13884,-13.22931 -20.13884,-16.43662 0,-1.11587 5.60495,-6.82533 12.45545,-12.68768 l 12.45545,-10.65882 3.4803,4.447 c 6.39224,8.16777 19.15269,7.39605 24.19398,-1.46319 l 2.58257,-4.53844 17.19269,-0.01 17.19269,-0.01 -0.95544,4.9122 c -0.52549,2.7017 -3.03475,9.16536 -5.57613,14.36366 -5.41972,11.08585 -14.51831,18.86192 -26.09116,22.29869 -9.54432,2.83436 -28.49466,2.72223 -36.79156,-0.21769 z"
       id="path1168"
       inkscape:connector-curvature="0"
       transform="matrix(0.26458333,0,0,0.26458333,0,87)" />
    <path
       style="opacity:1;fill:#00aad4;fill-opacity:1;fill-rule:nonzero;stroke:none;stroke-width:5.91496086;stroke-linecap:butt;stroke-linejoin:miter;stroke-miterlimit:4;stroke-dasharray:none;stroke-dashoffset:0;stroke-opacity:1;paint-order:stroke fill markers"
       d="m 530.70055,194.44663 -0.50561,-9.85912 10.4966,-9.00644 c 10.04592,-8.61974 10.85095,-9.00644 18.74946,-9.00644 h 8.25285 l -2.82752,3.40075 c -1.55513,1.87041 -5.48072,6.22795 -8.72353,9.68341 -3.24281,3.45546 -5.49756,6.92739 -5.01055,7.71538 0.48701,0.788 -0.79394,3.01046 -2.84656,4.93879 -2.05261,1.92833 -3.73203,2.92886 -3.73203,2.2234 0,-0.70546 -1.72042,0.3336 -3.82316,2.30902 -2.10273,1.97542 -3.5389,4.33244 -3.19147,5.23782 0.34743,0.90538 -0.93534,1.77584 -2.85059,1.93435 -3.26315,0.27006 -3.5141,-0.33221 -3.98789,-9.57092 z m 17.63173,-3.68888 c 1.50462,-1.66259 2.3956,-3.02289 1.97995,-3.02289 -0.41564,0 -1.98677,1.3603 -3.4914,3.02289 -1.50462,1.66259 -2.3956,3.02289 -1.97995,3.02289 0.41564,0 1.98678,-1.3603 3.4914,-3.02289 z"
       id="path1170"
       inkscape:connector-curvature="0"
       transform="matrix(0.26458333,0,0,0.26458333,0,87)" />
    <path
       style="opacity:1;fill:#00aad4;fill-opacity:1;fill-rule:nonzero;stroke:none;stroke-width:5.91496086;stroke-linecap:butt;stroke-linejoin:miter;stroke-miterlimit:4;stroke-dasharray:none;stroke-dashoffset:0;stroke-opacity:1;paint-order:stroke fill markers"
       d="m 475.02719,144.86884 c 0,-6.65209 0.2099,-6.93158 14.32743,-19.07631 11.61254,-9.9898 15.12097,-12.23412 18.5152,-11.84404 3.33291,0.38303 4.28792,1.35582 4.67835,4.76543 0.26981,2.35628 -0.0314,5.41696 -0.66934,6.8015 -0.63796,1.38455 -1.19969,3.53758 -1.2483,4.78452 -0.0486,1.24694 -0.96247,2.26717 -2.03081,2.26717 -2.43301,0 -4.95562,3.90458 -3.76609,5.82929 0.48924,0.7916 0.18135,1.0016 -0.6842,0.46666 -1.93562,-1.19628 -5.20413,2.47999 -4.61429,5.18995 0.23699,1.08884 -0.58933,2.02703 -1.83628,2.08486 -1.24694,0.0579 -2.18943,1.17862 -2.09443,2.49063 0.13986,1.9313 -1.80251,2.44314 -10.20225,2.6884 l -10.37499,0.30295 z"
       id="path1172"
       inkscape:connector-curvature="0"
       transform="matrix(0.26458333,0,0,0.26458333,0,87)" />
    <path
       style="opacity:1;fill:#00aad4;fill-opacity:1;fill-rule:nonzero;stroke:none;stroke-width:5.91496086;stroke-linecap:butt;stroke-linejoin:miter;stroke-miterlimit:4;stroke-dasharray:none;stroke-dashoffset:0;stroke-opacity:1;paint-order:stroke fill markers"
       d="m 475.02719,203.36035 c 0,-26.26761 0.059,-26.75338 3.85553,-31.73086 l 3.85553,-5.05486 h 15.03753 15.03754 v 15.6851 c 0,12.20896 -0.51055,16.10882 -2.3037,17.597 -1.26703,1.05155 -1.9457,2.2699 -1.50815,2.70745 1.33683,1.33682 -3.90479,6.17487 -5.87206,5.41995 -1.01347,-0.3889 -3.09543,0.6772 -4.62658,2.3691 -1.53116,1.69191 -2.21987,3.0762 -1.53048,3.0762 0.6894,0 -0.32428,1.67941 -2.25261,3.73203 -1.92834,2.05261 -4.13021,3.34629 -4.89305,2.87482 -1.71616,-1.06064 -7.45228,3.92213 -6.42626,5.58227 0.87734,1.41956 -1.98744,3.42288 -5.72822,4.0057 -2.43473,0.37934 -2.64502,-1.70882 -2.64502,-26.2639 z m 18.89306,13.09197 c 1.50462,-1.66259 2.3956,-3.02289 1.97996,-3.02289 -0.41565,0 -1.98678,1.3603 -3.4914,3.02289 -1.50463,1.66259 -2.39561,3.02289 -1.97996,3.02289 0.41565,0 1.98678,-1.3603 3.4914,-3.02289 z m 13.04008,-11.7137 c 1.88004,-2.39724 1.82658,-2.4507 -0.57066,-0.57066 -1.45476,1.14091 -2.64503,2.33117 -2.64503,2.64503 0,1.24397 1.24118,0.44331 3.21569,-2.07437 z"
       id="path1174"
       inkscape:connector-curvature="0"
       transform="matrix(0.26458333,0,0,0.26458333,0,87)" />
    <path
       style="opacity:1;fill:#00aad4;fill-opacity:1;fill-rule:nonzero;stroke:none;stroke-width:5.91496086;stroke-linecap:butt;stroke-linejoin:miter;stroke-miterlimit:4;stroke-dasharray:none;stroke-dashoffset:0;stroke-opacity:1;paint-order:stroke fill markers"
       d="m 475.02831,280.30139 c 0.001,-7.00764 0.39714,-7.61449 17.50263,-26.81866 9.62583,-10.80684 18.1759,-19.89174 19.00015,-20.18868 0.93493,-0.3368 1.34732,4.2933 1.09636,12.30914 -0.26949,8.60736 -0.95285,12.63776 -2.07006,12.20904 -0.91728,-0.35199 -3.28403,1.08044 -5.25945,3.18317 -1.97542,2.10274 -3.00579,3.82316 -2.28971,3.82316 0.71609,0 -0.62974,2.01627 -2.99071,4.4806 -2.36097,2.46432 -4.92402,4.0904 -5.69566,3.6135 -1.65566,-1.02325 -10.43413,6.97226 -9.43318,8.59183 0.93488,1.51267 -3.45932,4.98974 -6.98602,5.52796 -2.48402,0.37909 -2.87532,-0.53724 -2.87435,-6.73106 z m 7.74889,3.03238 c 1.88005,-2.39724 1.82659,-2.4507 -0.57065,-0.57066 -1.45477,1.14091 -2.64503,2.33117 -2.64503,2.64503 0,1.24397 1.24118,0.44332 3.21568,-2.07437 z m 16.43311,-14.73659 c 1.9524,-2.07824 3.20975,-3.77862 2.7941,-3.77862 -0.41565,0 -2.35314,1.70038 -4.30555,3.77862 -1.9524,2.07823 -3.20974,3.77861 -2.7941,3.77861 0.41565,0 2.35315,-1.70038 4.30555,-3.77861 z"
       id="path1176"
       inkscape:connector-curvature="0"
       transform="matrix(0.26458333,0,0,0.26458333,0,87)" />
    <path
       style="opacity:1;fill:#00aad4;fill-opacity:1;fill-rule:nonzero;stroke:none;stroke-width:5.91496086;stroke-linecap:butt;stroke-linejoin:miter;stroke-miterlimit:4;stroke-dasharray:none;stroke-dashoffset:0;stroke-opacity:1;paint-order:stroke fill markers"
       d="m 538.73197,298.40512 c 1.54077,-3.89395 71.47118,-101.60159 72.71736,-101.60159 3.65949,0 -1.31769,8.79218 -19.80112,34.97865 -10.93869,15.49742 -19.88853,28.59032 -19.88853,29.09532 0,0.50499 5.25414,0.91817 11.67587,0.91817 h 11.67587 l -11.26018,11.33584 c -6.1931,6.23471 -10.62262,11.33584 -9.84338,11.33584 0.77924,0 -1.83627,3.30273 -5.81224,7.33939 l -7.22903,7.3394 -11.38312,0.30128 c -6.26072,0.16571 -11.14389,-0.30332 -10.8515,-1.0423 z m 34.53915,-13.49674 c 0,-1.13492 -1.35701,0.065 -7.62039,6.73834 l -6.73834,7.17936 7.17937,-6.73834 c 3.94865,-3.70608 7.17936,-6.93679 7.17936,-7.17936 z"
       id="path1178"
       inkscape:connector-curvature="0"
       transform="matrix(0.26458333,0,0,0.26458333,0,87)" />
    <path
       style="opacity:1;fill:#00aad4;fill-opacity:1;fill-rule:nonzero;stroke:none;stroke-width:5.91496086;stroke-linecap:butt;stroke-linejoin:miter;stroke-miterlimit:4;stroke-dasharray:none;stroke-dashoffset:0;stroke-opacity:1;paint-order:stroke fill markers"
       d="m 685.17442,266.61394 c 0.031,-0.57181 2.95143,-12.66385 6.48988,-26.87121 l 6.43353,-25.83155 29.95243,-47.11008 c 16.47384,-25.91054 30.60241,-47.51178 31.39681,-48.00275 2.33517,-1.44321 2.80176,-0.24299 7.80603,20.07962 5.142,20.88196 5.69675,25.42949 3.10214,25.42949 -2.37155,0 -9.8232,9.21401 -9.32517,11.53063 0.22879,1.06423 -0.48903,1.96589 -1.59516,2.00367 -2.51651,0.086 -6.48862,5.34516 -5.38532,7.13033 0.45081,0.72942 -0.0811,1.13933 -1.182,0.91091 -1.10091,-0.22842 -1.93008,0.63763 -1.84259,1.92456 0.29014,4.26809 -5.36295,3.10692 -6.33193,-1.30061 -2.59682,-11.8119 -3.0128,-11.66217 -5.8365,2.10074 -1.52177,7.41725 -3.63526,15.64091 -4.69664,18.27482 -1.06139,2.63391 -1.47757,5.24115 -0.92484,5.79387 0.55272,0.55273 0.23089,0.77824 -0.71519,0.50114 -2.28946,-0.67057 -11.35154,10.75761 -10.11582,12.75705 0.53195,0.86071 0.25901,1.12725 -0.60654,0.59231 -1.93562,-1.19628 -5.20413,2.47999 -4.61429,5.18995 0.23699,1.08884 -0.58933,2.01238 -1.83628,2.05231 -1.24694,0.0399 -2.27506,1.235 -2.28471,2.6557 -0.01,1.4207 -0.99707,3.4594 -2.19427,4.53043 -1.89385,1.69426 -1.89495,1.55449 -0.008,-1.07555 2.14733,-2.99376 2.1356,-2.99506 -1.2168,-0.13426 -1.86176,1.58874 -3.21034,3.954 -2.99685,5.25614 0.21346,1.30212 -0.63208,2.38453 -1.87902,2.40533 -1.24695,0.0208 -2.27507,1.20022 -2.28471,2.62092 -0.01,1.4207 -0.99708,3.45939 -2.19428,4.53043 -1.89384,1.69426 -1.89495,1.55448 -0.009,-1.07555 2.14733,-2.99376 2.13561,-2.99506 -1.2168,-0.13427 -1.86176,1.58874 -3.21034,3.954 -2.99684,5.25614 0.2135,1.30213 -0.29197,2.39319 -1.12327,2.42458 -2.80334,0.10584 -5.50111,2.57076 -4.80344,4.38886 0.38099,0.99283 -0.59287,1.90199 -2.16412,2.02035 -1.57126,0.11836 -2.83147,-0.25265 -2.80048,-0.82445 z"
       id="path1180"
       inkscape:connector-curvature="0"
       transform="matrix(0.26458333,0,0,0.26458333,0,87)" />
    <path
       style="opacity:1;fill:#00aad4;fill-opacity:1;fill-rule:nonzero;stroke:none;stroke-width:5.91496086;stroke-linecap:butt;stroke-linejoin:miter;stroke-miterlimit:4;stroke-dasharray:none;stroke-dashoffset:0;stroke-opacity:1;paint-order:stroke fill markers"
       d="m 761.73357,240.40432 c 9.8174,-19.32865 18.66195,-35.38962 19.65455,-35.69104 3.59861,-1.0928 7.97398,24.25776 4.5518,26.37278 -0.93927,0.5805 -1.05968,0.18107 -0.31075,-1.03074 0.83345,-1.34853 0.63437,-1.61484 -0.62523,-0.83637 -1.01641,0.62818 -1.49128,2.07179 -1.05526,3.20802 0.43601,1.13624 0.0372,2.53283 -0.88621,3.10354 -1.08741,0.67205 -1.24814,0.34056 -0.45619,-0.94085 0.83345,-1.34854 0.63437,-1.61484 -0.62523,-0.83637 -1.01641,0.62818 -1.49128,2.07178 -1.05526,3.20802 0.43601,1.13623 0.0372,2.53282 -0.88621,3.10353 -1.08741,0.67206 -1.24814,0.34056 -0.45619,-0.94084 0.83345,-1.34854 0.63437,-1.61485 -0.62523,-0.83637 -1.01641,0.62817 -1.48605,2.0854 -1.04365,3.23829 0.44241,1.15288 -0.0213,1.93427 -1.03054,1.73642 -1.0092,-0.19785 -1.74489,0.80386 -1.63487,2.22603 0.11002,1.42216 -0.57012,2.44239 -1.51144,2.26716 -0.94132,-0.17522 -1.62147,0.84501 -1.51145,2.26717 0.11002,1.42217 -0.57012,2.44239 -1.51144,2.26717 -0.94132,-0.17522 -1.62147,0.845 -1.51145,2.26717 0.11002,1.42216 -0.57012,2.44239 -1.51144,2.26716 -0.94132,-0.17522 -1.62147,0.84501 -1.51145,2.26717 0.11002,1.42217 -0.57012,2.44239 -1.51144,2.26717 -0.94132,-0.17522 -1.62147,0.845 -1.51145,2.26717 0.11002,1.42216 -0.57013,2.44239 -1.51144,2.26717 -0.94132,-0.17523 -1.62147,0.845 -1.51145,2.26716 0.11002,1.42217 -0.57013,2.4424 -1.51144,2.26717 -0.94132,-0.17522 -1.63738,0.74955 -1.5468,2.05505 0.12327,1.77677 -1.5147,2.46056 -6.51399,2.71934 l -6.67868,0.34572 z"
       id="path1182"
       inkscape:connector-curvature="0"
       transform="matrix(0.26458333,0,0,0.26458333,0,87)" />
    <path
       style="opacity:1;fill:#00aad4;fill-opacity:1;fill-rule:nonzero;stroke:none;stroke-width:5.91496086;stroke-linecap:butt;stroke-linejoin:miter;stroke-miterlimit:4;stroke-dasharray:none;stroke-dashoffset:0;stroke-opacity:1;paint-order:stroke fill markers"
       d="m 844.36458,141.64051 c 0.64805,-1.68879 14.36754,-22.92924 16.90078,-26.1657 1.18836,-1.51824 10.96899,4.43485 11.66613,7.10072 0.5328,2.0374 0.25275,2.8342 -0.77326,2.20009 -1.03076,-0.63704 -1.30222,0.17734 -0.75572,2.26717 0.5465,2.08983 0.27504,2.90421 -0.75572,2.26717 -1.03077,-0.63705 -1.30223,0.17734 -0.75573,2.26716 0.46907,1.79373 0.30741,2.92422 -0.35926,2.5122 -0.66666,-0.41202 -1.59919,0.25959 -2.07228,1.49245 -0.67151,1.74991 -1.7224,1.91377 -4.79111,0.74705 -6.60117,-2.50977 -9.56389,-1.76219 -12.04709,3.03979 -2.37561,4.59393 -7.92039,6.60731 -6.25674,2.2719 z"
       id="path1184"
       inkscape:connector-curvature="0"
       transform="matrix(0.26458333,0,0,0.26458333,0,87)" />
    <path
       style="opacity:1;fill:#00aad4;fill-opacity:1;fill-rule:nonzero;stroke:none;stroke-width:5.91496086;stroke-linecap:butt;stroke-linejoin:miter;stroke-miterlimit:4;stroke-dasharray:none;stroke-dashoffset:0;stroke-opacity:1;paint-order:stroke fill markers"
       d="m 818.12525,264.81362 v -13.60795 l 18.38518,-35.7437 c 19.33004,-37.58065 23.81331,-44.19863 33.1785,-48.97639 8.94537,-4.56359 30.05436,-3.26906 30.05436,1.8431 v 2.40242 c 0,0.62347 -0.85019,1.14999 -1.88931,1.17004 -1.03912,0.0201 -1.79606,1.203 -1.68209,2.62877 0.11396,1.42576 -0.28799,2.28625 -0.89323,1.91219 -1.62661,-1.0053 -7.92323,8.07912 -6.82806,9.85114 0.5155,0.83408 0.0365,1.32963 -1.06439,1.10121 -1.132,-0.23488 -2.00252,0.89803 -2.00365,2.60758 -10e-4,1.66259 -0.83818,3.02289 -1.8602,3.02289 -2.33789,0 -6.64176,6.0068 -6.10052,8.51436 0.26811,1.24219 -2.15485,2.08297 -7.15173,2.48169 -4.15648,0.33166 -8.64312,1.57497 -9.97031,2.76291 -3.17838,2.8449 -5.67239,11.56551 -6.09346,21.30653 -0.18685,4.32272 -0.94538,7.48518 -1.6856,7.02769 -0.74023,-0.45749 -1.13035,0.41146 -0.86693,1.93099 0.28606,1.65012 -0.43411,2.77802 -1.78821,2.80062 -1.24695,0.0208 -2.27585,1.17832 -2.28645,2.57227 -0.0106,1.39394 -0.62976,3.09256 -1.37591,3.7747 -0.79036,0.72258 -0.84256,0.35418 -0.12505,-0.88257 0.85447,-1.47283 0.66571,-1.77312 -0.61644,-0.9807 -1.01641,0.62817 -1.49128,2.07178 -1.05527,3.20801 0.43602,1.13624 0.0372,2.53283 -0.88621,3.10354 -1.11554,0.68945 -1.24963,0.32529 -0.39958,-1.08518 1.09232,-1.81244 0.89541,-1.81118 -1.3467,0.009 -1.44434,1.1723 -2.28476,3.02093 -1.86759,4.10807 0.41718,1.08713 0.003,2.44355 -0.92046,3.01426 -1.08741,0.67207 -1.24814,0.34057 -0.45618,-0.94084 0.83344,-1.34853 0.63436,-1.61484 -0.62524,-0.83637 -1.0164,0.62818 -1.49127,2.07179 -1.05526,3.20802 0.43601,1.13623 0.0372,2.53283 -0.88621,3.10354 -1.11555,0.68944 -1.24964,0.32528 -0.39958,-1.08518 1.09232,-1.81244 0.89541,-1.81118 -1.3467,0.009 -1.44435,1.17231 -2.27954,3.03456 -1.85597,4.13835 0.42356,1.10378 -0.0556,1.845 -1.0648,1.64715 -1.0092,-0.19784 -1.83581,1.00058 -1.83691,2.66317 -10e-4,1.66259 -1.02132,3.03929 -2.26717,3.05935 -1.24584,0.0201 -2.17192,1.20299 -2.05796,2.62876 0.11397,1.42577 -0.34915,2.24845 -1.02914,1.82819 -0.68,-0.42026 -1.66357,-0.0729 -2.18572,0.77199 -2.57567,4.16752 -3.79385,0.29132 -3.79385,-12.07185 z"
       id="path1186"
       inkscape:connector-curvature="0"
       transform="matrix(0.26458333,0,0,0.26458333,0,87)" />
    <path
       style="opacity:1;fill:#00aad4;fill-opacity:1;fill-rule:nonzero;stroke:none;stroke-width:5.91496086;stroke-linecap:butt;stroke-linejoin:miter;stroke-miterlimit:4;stroke-dasharray:none;stroke-dashoffset:0;stroke-opacity:1;paint-order:stroke fill markers"
       d="M 881.60595,254.80819 V 234.2177 l 14.57382,-26.3515 c 8.3021,-15.01135 15.14165,-25.78369 15.89328,-25.03205 5.40299,5.40299 7.90874,54.01776 2.78469,54.02659 -1.25659,0.002 -2.26806,1.3496 -2.26916,3.02289 -10e-4,1.6721 -1.01257,3.02072 -2.26717,3.02289 -1.25459,0.002 -2.26606,1.35079 -2.26717,3.02289 -0.001,1.6721 -1.01257,3.02072 -2.26717,3.02289 -1.25459,0.002 -2.26606,1.35079 -2.26716,3.02289 -10e-4,1.6721 -1.01258,3.02072 -2.26717,3.02289 -1.2546,0.002 -2.26607,1.35079 -2.26717,3.02289 -0.001,1.6721 -1.01257,3.02072 -2.26717,3.02289 -1.25459,0.002 -2.26606,1.35079 -2.26716,3.02289 -10e-4,1.6721 -1.01258,3.02073 -2.26717,3.02289 -1.2546,0.002 -2.26607,1.35079 -2.26717,3.02289 -0.001,1.66044 -0.79461,3.01898 -1.76335,3.01898 -0.96875,0 -2.27147,0.51012 -2.89495,1.13359 -3.01024,3.01024 -3.65265,-0.41178 -3.65265,-19.45691 z"
       id="path1188"
       inkscape:connector-curvature="0"
       transform="matrix(0.26458333,0,0,0.26458333,0,87)" />
    <path
       style="opacity:1;fill:#00aad4;fill-opacity:1;fill-rule:nonzero;stroke:none;stroke-width:5.91496086;stroke-linecap:butt;stroke-linejoin:miter;stroke-miterlimit:4;stroke-dasharray:none;stroke-dashoffset:0;stroke-opacity:1;paint-order:stroke fill markers"
       d="m 933.73597,240.54764 c -0.55087,-3.26057 -0.52398,-11.20615 0.0598,-17.65685 l 1.06134,-11.72853 16.66389,-22.35749 c 9.16514,-12.29662 18.07956,-23.34906 19.80982,-24.56098 1.73027,-1.21193 5.30317,-2.2035 7.9398,-2.2035 4.11524,0 4.763,0.51437 4.57589,3.63358 -0.11989,1.99846 -0.84367,3.24719 -1.60841,2.77494 -0.76933,-0.47508 -0.94585,0.29994 -0.39517,1.73499 0.56218,1.46503 0.3781,2.21219 -0.42304,1.71705 -1.88529,-1.16517 -5.02498,4.84336 -3.6735,7.03011 0.69783,1.1291 0.37624,1.29167 -0.94268,0.47654 -1.50031,-0.92725 -1.72814,-0.52397 -0.90937,1.6097 0.60085,1.5658 0.60741,2.36185 0.0145,1.76901 -1.57437,-1.57438 -5.49651,4.64048 -4.22596,6.69628 0.71589,1.15833 0.40584,1.32764 -0.92501,0.50512 -1.50031,-0.92724 -1.72814,-0.52397 -0.90937,1.60971 0.60085,1.5658 0.60741,2.36185 0.0145,1.769 -1.57437,-1.57437 -5.49651,4.64049 -4.22596,6.69628 0.71589,1.15833 0.40584,1.32764 -0.92501,0.50513 -1.46567,-0.90583 -1.73526,-0.54254 -1.00657,1.35641 0.67072,1.74787 0.42429,2.24073 -0.75572,1.51145 -1.18001,-0.72928 -1.42644,-0.23642 -0.75572,1.51145 0.56218,1.46503 0.3781,2.21218 -0.42304,1.71705 -1.88529,-1.16517 -5.02498,4.84336 -3.6735,7.0301 0.69783,1.12911 0.37624,1.29168 -0.94268,0.47655 -1.46566,-0.90584 -1.73526,-0.54254 -1.00656,1.35641 0.56218,1.46503 0.3781,2.21219 -0.42304,1.71706 -1.88529,-1.16518 -5.02498,4.84335 -3.6735,7.0301 0.69783,1.12911 0.37624,1.29168 -0.94268,0.47654 -1.46566,-0.90583 -1.73526,-0.54253 -1.00656,1.35642 0.67071,1.74786 0.42428,2.24073 -0.75573,1.51144 -1.16682,-0.72113 -1.43131,-0.24913 -0.7928,1.41482 0.59078,1.53955 0.25461,2.35904 -0.87673,2.13725 -1.0092,-0.19785 -1.74167,0.82321 -1.6277,2.26903 0.11783,1.49495 -0.48187,2.20289 -1.39044,1.64136 -1.00538,-0.62136 -1.22869,-0.0259 -0.60238,1.60621 0.67071,1.74787 0.42428,2.24073 -0.75573,1.51145 -1.16682,-0.72114 -1.43132,-0.24913 -0.7928,1.41481 0.59078,1.53956 0.25461,2.35905 -0.87673,2.13725 -1.0092,-0.19785 -1.76334,0.69321 -1.67585,1.98014 0.0875,1.28693 -1.0508,2.43101 -2.52952,2.5424 -2.00446,0.15099 -2.94343,-1.30595 -3.69016,-5.72579 z"
       id="path1192"
       inkscape:connector-curvature="0"
       transform="matrix(0.26458333,0,0,0.26458333,0,87)" />
    <path
       style="opacity:1;fill:#00aad4;fill-opacity:1;fill-rule:nonzero;stroke:none;stroke-width:5.91496086;stroke-linecap:butt;stroke-linejoin:miter;stroke-miterlimit:4;stroke-dasharray:none;stroke-dashoffset:0;stroke-opacity:1;paint-order:stroke fill markers"
       d="m 968.08668,301.58719 c -3.56022,-1.25966 -9.92864,-5.46764 -14.15204,-9.35106 l -7.6789,-7.06077 12.6406,-14.73484 c 10.5347,-12.28004 12.8924,-14.32617 14.15204,-12.28183 4.93875,8.01538 7.12459,9.68276 12.69352,9.68276 10.93838,0 15.3083,-8.54521 16.1802,-31.63981 l 0.5953,-15.76963 12.9444,-14.83713 c 7.1195,-8.16042 13.508,-14.83713 14.1967,-14.83713 3.6002,0 8.9296,21.54725 6.1561,24.8892 -0.9971,1.20142 -1.3092,2.99943 -0.6936,3.99558 0.6683,1.08126 0.48,1.41601 -0.4672,0.83061 -1.8137,-1.12095 -3.8704,3.08785 -2.5516,5.22169 0.4801,0.77688 -0.028,1.22561 -1.1287,0.99719 -1.1071,-0.2297 -1.909,0.75955 -1.7944,2.21345 0.1178,1.49496 -0.4819,2.20289 -1.3905,1.64137 -1.0054,-0.62137 -1.2287,-0.0259 -0.6024,1.60621 0.6708,1.74786 0.4243,2.24073 -0.7557,1.51144 -1.1668,-0.72113 -1.4313,-0.24913 -0.7928,1.41482 0.5908,1.53955 0.2546,2.35905 -0.8767,2.13725 -1.0092,-0.19785 -1.7417,0.82321 -1.6277,2.26903 0.1178,1.49495 -0.4819,2.20289 -1.3905,1.64136 -1.0053,-0.62136 -1.2286,-0.0259 -0.6023,1.60622 0.6707,1.74786 0.4242,2.24073 -0.7558,1.51144 -1.1668,-0.72114 -1.4313,-0.24913 -0.7928,1.41481 0.5908,1.53956 0.2546,2.35905 -0.8767,2.13725 -1.0092,-0.19785 -1.7417,0.82322 -1.6277,2.26904 0.1178,1.49495 -0.4819,2.20289 -1.3904,1.64136 -1.0054,-0.62136 -1.2287,-0.0259 -0.6024,1.60621 0.6707,1.74786 0.4243,2.24073 -0.7557,1.51145 -1.1669,-0.72114 -1.4314,-0.24913 -0.7928,1.41481 0.5907,1.53956 0.2546,2.35905 -0.8768,2.13725 -1.0092,-0.19785 -1.7416,0.82321 -1.6277,2.26903 0.1179,1.49496 -0.4818,2.20289 -1.3904,1.64137 -1.0054,-0.62137 -1.2287,-0.0259 -0.6024,1.60621 0.6707,1.74786 0.4243,2.24073 -0.7557,1.51144 -1.1668,-0.72113 -1.4313,-0.24913 -0.7928,1.41482 0.5908,1.53955 0.2546,2.35904 -0.8768,2.13725 -1.0092,-0.19785 -1.7416,0.82321 -1.6277,2.26903 0.1179,1.49495 -0.4818,2.20289 -1.3904,1.64136 -1.0054,-0.62136 -1.2287,-0.0259 -0.6024,1.60621 0.6707,1.74787 0.4243,2.24073 -0.7557,1.51145 -1.1668,-0.72114 -1.4313,-0.24913 -0.7928,1.41481 0.5908,1.53956 0.2546,2.35905 -0.8767,2.13725 -1.00924,-0.19785 -1.74171,0.82322 -1.62774,2.26904 0.11783,1.49495 -0.48187,2.20288 -1.39044,1.64136 -1.00538,-0.62136 -1.22869,-0.0259 -0.60238,1.60621 0.67072,1.74786 0.42428,2.24073 -0.75572,1.51145 -1.18001,-0.72929 -1.42644,-0.23642 -0.75573,1.51144 0.56219,1.46503 0.37811,2.21219 -0.42303,1.71706 -1.8853,-1.16518 -5.02499,4.84335 -3.6735,7.0301 0.69783,1.12911 0.37624,1.29168 -0.94268,0.47654 -1.46567,-0.90583 -1.73526,-0.54253 -1.00657,1.35642 0.59503,1.5506 0.39011,2.21961 -0.50954,1.66359 -0.82765,-0.51151 -1.91285,0.13331 -2.41157,1.43294 -1.15873,3.01962 -9.60418,2.9434 -18.39232,-0.16598 z"
       id="path1194"
       inkscape:connector-curvature="0"
       transform="matrix(0.26458333,0,0,0.26458333,0,87)" />
  </g>
</svg>
