<?xml version="1.0" encoding="UTF-8" standalone="no"?>
<!-- Created with Inkscape (http://www.inkscape.org/) -->

<svg
   xmlns:dc="http://purl.org/dc/elements/1.1/"
   xmlns:cc="http://creativecommons.org/ns#"
   xmlns:rdf="http://www.w3.org/1999/02/22-rdf-syntax-ns#"
   xmlns:svg="http://www.w3.org/2000/svg"
   xmlns="http://www.w3.org/2000/svg"
   xmlns:sodipodi="http://sodipodi.sourceforge.net/DTD/sodipodi-0.dtd"
   xmlns:inkscape="http://www.inkscape.org/namespaces/inkscape"
   width="297mm"
   height="210mm"
   viewBox="0 0 297 210"
   version="1.1"
   id="svg8"
   inkscape:version="0.92.2 (5c3e80d, 2017-08-06)"
   sodipodi:docname="nueve.svg">
  <defs
     id="defs2">
    <inkscape:path-effect
       effect="spiro"
       id="path-effect1837"
       is_visible="true" />
    <inkscape:path-effect
       effect="spiro"
       id="path-effect962"
       is_visible="true" />
    <filter
       inkscape:collect="always"
       style="color-interpolation-filters:sRGB"
       id="filter1958"
       x="-0.039888179"
       width="1.0797764"
       y="-0.17449747"
       height="1.3489949">
      <feGaussianBlur
         inkscape:collect="always"
         stdDeviation="3.4140126"
         id="feGaussianBlur1960" />
    </filter>
  </defs>
  <sodipodi:namedview
     id="base"
     pagecolor="#ffffff"
     bordercolor="#666666"
     borderopacity="1.0"
     inkscape:pageopacity="0.0"
     inkscape:pageshadow="2"
     inkscape:zoom="0.61580177"
     inkscape:cx="561.25984"
     inkscape:cy="506.56662"
     inkscape:document-units="mm"
     inkscape:current-layer="layer1"
     showgrid="false"
     inkscape:window-width="1366"
     inkscape:window-height="705"
     inkscape:window-x="-8"
     inkscape:window-y="-8"
     inkscape:window-maximized="1" />
  <metadata
     id="metadata5">
    <rdf:RDF>
      <cc:Work
         rdf:about="">
        <dc:format>image/svg+xml</dc:format>
        <dc:type
           rdf:resource="http://purl.org/dc/dcmitype/StillImage" />
        <dc:title />
      </cc:Work>
    </rdf:RDF>
  </metadata>
  <g
     inkscape:label="Capa 1"
     inkscape:groupmode="layer"
     id="layer1"
     transform="translate(0,-87)">
    <g
       aria-label="2019 "
       transform="matrix(0.9063031,0.02713595,-0.28584187,0.23056397,91.316452,81.115624)"
       style="font-style:normal;font-variant:normal;font-weight:normal;font-stretch:normal;font-size:53.81007767px;line-height:1.25;font-family:'News701 BT';-inkscape-font-specification:'News701 BT';letter-spacing:0px;word-spacing:0px;fill:#000000;fill-opacity:1;stroke:none;stroke-width:0.56834948;filter:url(#filter1958)"
       id="text817-3-6">
      <path
         d="m 109.60681,177.28374 v 8.61802 H 82.859417 v -5.07097 c 2.189537,-2.41725 4.703127,-4.99214 7.540768,-7.72468 6.358417,-6.07816 9.537626,-10.72874 9.537626,-13.95174 0,-4.29149 -1.699081,-6.43724 -5.097244,-6.43724 -4.133847,0 -6.200771,2.59241 -6.200771,7.77724 0,1.22614 0.249128,3.18174 0.844683,5.40632 l -5.495261,-1.54398 c -0.420391,-1.64653 -0.630586,-2.96901 -0.630586,-3.96744 0,-7.26927 4.492931,-10.9039 13.478793,-10.9039 3.801035,0 6.927695,0.93712 9.379975,2.81137 2.45229,1.87425 3.67843,4.27398 3.67843,7.1992 0,3.34561 -2.42601,6.989 -7.27803,10.93017 l -3.258027,2.62745 -3.5996,3.02156 c -0.227712,0.19268 -0.788234,0.59555 -1.681565,1.20862 z"
         style="font-style:normal;font-variant:normal;font-weight:normal;font-stretch:normal;font-family:'Britannic Bold';-inkscape-font-specification:'Britannic Bold, ';fill:#000000;stroke-width:0.56834948"
         id="path942-2"
         inkscape:connector-curvature="0"
         sodipodi:nodetypes="cccccsssccsscsccccc" />
      <path
         inkscape:connector-curvature="0"
         d="m 129.57539,149.48537 q 15.00272,0 15.00272,18.49722 0,18.49721 -15.00272,18.49721 -15.02898,0 -15.02898,-18.49721 0,-18.49722 15.02898,-18.49722 z m 0,2.86392 q -4.09881,0 -4.09881,15.6333 0,15.6333 4.09881,15.6333 4.07254,0 4.07254,-15.6333 0,-15.6333 -4.07254,-15.6333 z"
         style="font-style:normal;font-variant:normal;font-weight:normal;font-stretch:normal;font-family:'Britannic Bold';-inkscape-font-specification:'Britannic Bold, ';fill:#000000;stroke-width:0.56834948"
         id="path944-1" />
      <path
         inkscape:connector-curvature="0"
         d="m 168.69805,150.03714 v 35.86462 h -10.03684 v -27.01013 q -4.01999,1.94431 -7.46194,2.18078 v -4.7294 q 7.90861,-0.78824 11.14037,-6.30587 z"
         style="font-style:normal;font-variant:normal;font-weight:normal;font-stretch:normal;font-family:'Britannic Bold';-inkscape-font-specification:'Britannic Bold, ';fill:#000000;stroke-width:0.56834948"
         id="path946-5" />
      <path
         inkscape:connector-curvature="0"
         d="m 182.75488,176.86335 4.75568,-0.94588 q -0.26275,1.57647 -0.26275,2.78509 0,4.9396 4.67685,4.9396 3.23176,0 4.49294,-2.49607 1.28744,-2.52235 1.91803,-10.19449 -3.28431,2.99529 -6.72626,2.99529 -4.7294,0 -7.75096,-3.28431 -3.02156,-3.31058 -3.02156,-8.46037 0,-5.75411 3.62587,-9.24861 3.65215,-3.52078 9.61645,-3.52078 15.21291,0 15.21291,18.28702 0,8.7494 -4.38784,13.76782 -4.38783,5.01842 -12.00742,5.01842 -10.22076,0 -10.22076,-7.64587 0,-0.70941 0.0788,-1.99686 z m 12.1388,-24.56661 q -3.83607,0 -3.83607,9.90547 0,8.06625 3.36313,8.06625 4.28273,0 4.28273,-8.67056 0,-9.30116 -3.80979,-9.30116 z"
         style="font-style:normal;font-variant:normal;font-weight:normal;font-stretch:normal;font-family:'Britannic Bold';-inkscape-font-specification:'Britannic Bold, ';fill:#000000;stroke-width:0.56834948"
         id="path948-0" />
    </g>
    <g
       aria-label="2019    "
       transform="matrix(0.97291341,0,0,1.0278407,26.638713,-63.159529)"
       style="font-style:normal;font-variant:normal;font-weight:normal;font-stretch:normal;font-size:53.81007767px;line-height:1.25;font-family:'News701 BT';-inkscape-font-specification:'News701 BT';letter-spacing:0px;word-spacing:0px;fill:#000000;fill-opacity:1;stroke:none;stroke-width:0.26458329"
       id="text817">
      <path
         d="m 112.90218,175.59687 v 8.61802 l -3.29537,1.68687 -23.452021,-6.75784 c 2.189537,-2.41725 4.703127,-4.99214 7.540768,-7.72469 6.358413,-6.07815 9.537623,-10.72873 9.537623,-13.95173 0,-4.29149 -1.69908,-6.43724 -5.097241,-6.43724 -4.133847,0 -6.200771,2.59241 -6.200771,7.77723 0,1.22615 0.297777,2.9515 0.893332,5.17607 -4.428121,3.57344 -4.835176,1.31832 -5.54391,-1.31372 -0.420391,-1.64653 0.07713,-3.2271 -0.630586,-3.96744 -4.989642,-5.21967 3.030303,-10.30309 13.478796,-10.9039 3.79404,-0.21816 6.92769,0.93712 9.37998,2.81137 2.45228,1.87424 3.67842,4.27397 3.67842,7.1992 0,3.34561 -2.42601,6.989 -7.27802,10.93017 l -3.25804,2.62744 -3.599595,3.02156 c -0.227712,0.19268 -0.788234,0.59556 -1.681565,1.20863 z"
         style="font-style:normal;font-variant:normal;font-weight:normal;font-stretch:normal;font-family:'Britannic Bold';-inkscape-font-specification:'Britannic Bold, ';stroke-width:0.26458329"
         id="path951"
         inkscape:connector-curvature="0"
         sodipodi:nodetypes="cccccsssccssssccccc" />
      <path
         d="m 132.87077,147.7985 c 9.93007,-1.13189 15.00271,6.16574 15.00271,18.49721 0,12.33148 -6.94687,20.155 -16.94868,20.155 -10.01933,0 -10.97727,-7.98567 -13.08302,-20.155 -1.99748,-11.54366 0.93687,-16.8909 15.02899,-18.49721 z m 0,2.86391 c -2.73255,0 -4.09882,5.2111 -4.09882,15.6333 0,10.4222 1.36627,15.6333 4.09882,15.6333 2.71503,0 4.07254,-5.2111 4.07254,-15.6333 0,-10.4222 -1.35751,-15.6333 -4.07254,-15.6333 z"
         style="font-style:normal;font-variant:normal;font-weight:normal;font-stretch:normal;font-family:'Britannic Bold';-inkscape-font-specification:'Britannic Bold, ';stroke-width:0.26458329"
         id="path953"
         inkscape:connector-curvature="0"
         sodipodi:nodetypes="ssssssssss" />
      <path
         d="m 171.99343,148.35026 v 35.86463 l -3.29538,1.68687 -6.74147,-28.69701 c -2.67999,1.29621 -8.46268,-1.01939 -10.75731,-0.86174 l 3.29537,-1.68688 c 5.27241,-0.52549 9.76425,-3.22608 11.14037,-6.30587 z"
         style="font-style:normal;font-variant:normal;font-weight:normal;font-stretch:normal;font-family:'Britannic Bold';-inkscape-font-specification:'Britannic Bold, ';stroke-width:0.26458329"
         id="path955"
         inkscape:connector-curvature="0"
         sodipodi:nodetypes="cccccccc" />
      <path
         d="m 186.05025,175.17648 4.75568,-0.94588 c -0.17517,1.05097 -0.26275,1.97934 -0.26275,2.78509 0,3.29307 1.55895,4.9396 4.67686,4.9396 2.1545,0 3.65214,-0.83203 4.49293,-2.49608 0.8583,-1.68156 1.40034,-5.90861 1.82073,-11.02337 -2.18953,1.99685 -4.33432,3.82417 -6.62896,3.82417 -3.15293,0 -5.73659,-1.09477 -7.75096,-3.2843 -2.01437,-2.20705 -3.02156,-5.02718 -3.02156,-8.46038 0,-3.83607 -0.64005,-6.27424 1.7772,-8.60391 2.43476,-2.34718 7.48892,-4.16547 11.46512,-4.16547 10.14194,0 15.21291,6.09567 15.21291,18.28702 0,5.83293 -1.46261,10.4222 -4.38783,13.76781 -2.92523,3.34561 -7.90069,6.3999 -12.98042,6.3999 -6.81384,0 -12.40997,-4.25245 -12.40997,-9.34969 0,-0.47294 3.24102,-1.67451 3.24102,-1.67451 z m 12.1388,-24.56661 c -2.55738,0 -3.83607,3.30182 -3.83607,9.90546 0,5.37751 1.12104,8.06626 3.36313,8.06626 2.85516,0 4.28274,-2.89019 4.28274,-8.67057 0,-6.20077 -1.26993,-9.30115 -3.8098,-9.30115 z"
         style="font-style:normal;font-variant:normal;font-weight:normal;font-stretch:normal;font-family:'Britannic Bold';-inkscape-font-specification:'Britannic Bold, ';stroke-width:0.26458329"
         id="path957"
         inkscape:connector-curvature="0"
         sodipodi:nodetypes="ccssccscscsscsscsssss" />
    </g>
    <g
       aria-label="2019 "
       transform="matrix(0.9729134,0,0,1.0278407,26.638713,-63.159529)"
       style="font-style:normal;font-variant:normal;font-weight:normal;font-stretch:normal;font-size:53.81007767px;line-height:1.25;font-family:'News701 BT';-inkscape-font-specification:'News701 BT';letter-spacing:0px;word-spacing:0px;fill:#5aa02c;fill-opacity:1;stroke:none;stroke-width:0.26458329"
       id="text817-3">
      <path
         d="m 109.60681,177.28374 v 8.61802 H 82.859417 v -5.07097 c 2.189537,-2.41725 4.703127,-4.99214 7.540768,-7.72468 6.358417,-6.07816 9.537626,-10.72874 9.537626,-13.95174 0,-4.29149 -1.699081,-6.43724 -5.097244,-6.43724 -4.133847,0 -6.200771,2.59241 -6.200771,7.77724 0,1.22614 0.249128,3.18174 0.844683,5.40632 l -5.495261,-1.54398 c -0.420391,-1.64653 -0.630586,-2.96901 -0.630586,-3.96744 0,-7.26927 4.492931,-10.9039 13.478793,-10.9039 3.801035,0 6.927695,0.93712 9.379975,2.81137 2.45229,1.87425 3.67843,4.27398 3.67843,7.1992 0,3.34561 -2.42601,6.989 -7.27803,10.93017 l -3.258027,2.62745 -3.5996,3.02156 c -0.227712,0.19268 -0.788234,0.59555 -1.681565,1.20862 z"
         style="font-style:normal;font-variant:normal;font-weight:normal;font-stretch:normal;font-family:'Britannic Bold';-inkscape-font-specification:'Britannic Bold, ';fill:#5aa02c;stroke-width:0.26458329"
         id="path942"
         inkscape:connector-curvature="0"
         sodipodi:nodetypes="cccccsssccsscsccccc" />
      <path
         d="m 129.57539,149.48537 q 15.00272,0 15.00272,18.49722 0,18.49721 -15.00272,18.49721 -15.02898,0 -15.02898,-18.49721 0,-18.49722 15.02898,-18.49722 z m 0,2.86392 q -4.09881,0 -4.09881,15.6333 0,15.6333 4.09881,15.6333 4.07254,0 4.07254,-15.6333 0,-15.6333 -4.07254,-15.6333 z"
         style="font-style:normal;font-variant:normal;font-weight:normal;font-stretch:normal;font-family:'Britannic Bold';-inkscape-font-specification:'Britannic Bold, ';fill:#5aa02c;stroke-width:0.26458329"
         id="path944"
         inkscape:connector-curvature="0" />
      <path
         d="m 168.69805,150.03714 v 35.86462 h -10.03684 v -27.01013 q -4.01999,1.94431 -7.46194,2.18078 v -4.7294 q 7.90861,-0.78824 11.14037,-6.30587 z"
         style="font-style:normal;font-variant:normal;font-weight:normal;font-stretch:normal;font-family:'Britannic Bold';-inkscape-font-specification:'Britannic Bold, ';fill:#5aa02c;stroke-width:0.26458329"
         id="path946"
         inkscape:connector-curvature="0" />
      <path
         d="m 182.75488,176.86335 4.75568,-0.94588 q -0.26275,1.57647 -0.26275,2.78509 0,4.9396 4.67685,4.9396 3.23176,0 4.49294,-2.49607 1.28744,-2.52235 1.91803,-10.19449 -3.28431,2.99529 -6.72626,2.99529 -4.7294,0 -7.75096,-3.28431 -3.02156,-3.31058 -3.02156,-8.46037 0,-5.75411 3.62587,-9.24861 3.65215,-3.52078 9.61645,-3.52078 15.21291,0 15.21291,18.28702 0,8.7494 -4.38784,13.76782 -4.38783,5.01842 -12.00742,5.01842 -10.22076,0 -10.22076,-7.64587 0,-0.70941 0.0788,-1.99686 z m 12.1388,-24.56661 q -3.83607,0 -3.83607,9.90547 0,8.06625 3.36313,8.06625 4.28273,0 4.28273,-8.67056 0,-9.30116 -3.80979,-9.30116 z"
         style="font-style:normal;font-variant:normal;font-weight:normal;font-stretch:normal;font-family:'Britannic Bold';-inkscape-font-specification:'Britannic Bold, ';fill:#5aa02c;stroke-width:0.26458329"
         id="path948"
         inkscape:connector-curvature="0" />
    </g>
    <path
       style="opacity:1;fill:#000000;fill-opacity:1;fill-rule:nonzero;stroke:none;stroke-width:1.56500006;stroke-linecap:butt;stroke-linejoin:miter;stroke-miterlimit:4;stroke-dasharray:none;stroke-dashoffset:0;stroke-opacity:1;paint-order:stroke fill markers"
       d="m 184.90189,90.871914 c 0.0127,-0.0381 2.86463,-1.5709 2.88535,-1.55101 0.0357,0.0343 0.10457,0.86607 -0.38533,1.21978 l -0.56087,0.51405 -0.96313,0.0339 c -0.58627,5.3e-4 -1.30502,-0.009 -1.29678,-0.0338 z"
       id="path964"
       inkscape:connector-curvature="0"
       sodipodi:nodetypes="ccccccc" />
    <path
       style="opacity:1;fill:#55d400;fill-opacity:1;fill-rule:nonzero;stroke:none;stroke-width:1.56500006;stroke-linecap:butt;stroke-linejoin:miter;stroke-miterlimit:4;stroke-dasharray:none;stroke-dashoffset:0;stroke-opacity:1;paint-order:stroke fill markers"
       d="m 123.84173,98.96489 c -0.006,-0.52155 -0.17022,-1.39082 -0.36508,-1.93171 -0.19487,-0.54089 -0.35597,-1.059357 -0.358,-1.152137 -0.002,-0.0928 1.22288,-0.907743 2.72204,-1.810999 l 2.72573,-1.64229 1.01281,0.73367 c 0.55704,0.40352 1.03623,0.83124 1.06485,0.95049 0.0584,0.24314 -5.82159,5.429036 -6.41292,5.655956 -0.29964,0.11498 -0.38089,-0.0525 -0.38943,-0.80298 z"
       id="path1847"
       inkscape:connector-curvature="0" />
    <path
       style="opacity:1;fill:#55d400;fill-opacity:1;fill-rule:nonzero;stroke:none;stroke-width:1.56500006;stroke-linecap:butt;stroke-linejoin:miter;stroke-miterlimit:4;stroke-dasharray:none;stroke-dashoffset:0;stroke-opacity:1;paint-order:stroke fill markers"
       d="m 115.24746,122.01556 c 0,-0.11999 0.77699,-0.84595 1.72665,-1.61324 1.41552,-1.14368 1.86729,-1.38127 2.50705,-1.31845 0.7465,0.0733 0.67898,0.14336 -1.55446,1.61324 -2.36416,1.5559 -2.67924,1.71096 -2.67924,1.31845 z"
       id="path1849"
       inkscape:connector-curvature="0" />
    <path
       style="opacity:1;fill:#55d400;fill-opacity:1;fill-rule:nonzero;stroke:none;stroke-width:1.56500006;stroke-linecap:butt;stroke-linejoin:miter;stroke-miterlimit:4;stroke-dasharray:none;stroke-dashoffset:0;stroke-opacity:1;paint-order:stroke fill markers"
       d="m 127.78627,126.21439 c 0,-0.22599 5.04035,-4.9641 5.28075,-4.9641 0.086,0 0.1224,0.4588 0.0808,1.01955 -0.0743,1.00205 -0.11783,1.04627 -2.53419,2.57478 -2.47214,1.5638 -2.82738,1.7359 -2.82738,1.36977 z"
       id="path1851"
       inkscape:connector-curvature="0" />
    <path
       style="opacity:1;fill:#55d400;fill-opacity:1;fill-rule:nonzero;stroke:none;stroke-width:1.56500006;stroke-linecap:butt;stroke-linejoin:miter;stroke-miterlimit:4;stroke-dasharray:none;stroke-dashoffset:0;stroke-opacity:1;paint-order:stroke fill markers"
       d="m 138.97726,101.5201 c 0.0915,-0.43947 0.51521,-1.68235 0.94151,-2.76195 l 0.7751,-1.96291 5.36305,-3.151496 c 5.05821,-2.97237 5.42853,-3.14727 6.51526,-3.0772 l 1.15221,0.0743 -7.31113,5.839156 c -4.02113,3.21153 -7.37667,5.83915 -7.45677,5.83915 -0.0801,0 -0.0708,-0.35957 0.0208,-0.79905 z"
       id="path1853"
       inkscape:connector-curvature="0" />
    <path
       style="opacity:1;fill:#55d400;fill-opacity:1;fill-rule:nonzero;stroke:none;stroke-width:1.56500006;stroke-linecap:butt;stroke-linejoin:miter;stroke-miterlimit:4;stroke-dasharray:none;stroke-dashoffset:0;stroke-opacity:1;paint-order:stroke fill markers"
       d="m 155.97205,98.44687 c -0.57196,-2.03138 -0.67215,-1.85968 2.18341,-3.741716 1.44256,-0.95075 2.76469,-1.72865 2.93806,-1.72865 0.17337,0 0.45822,0.1723 0.63298,0.38287 0.35634,0.42937 0.61126,0.1337 -3.03007,3.514346 -1.18683,1.10187 -2.25808,2.0034 -2.38056,2.0034 -0.12247,0 -0.27719,-0.19361 -0.34382,-0.43025 z"
       id="path1855"
       inkscape:connector-curvature="0" />
    <path
       style="opacity:1;fill:#55d400;fill-opacity:1;fill-rule:nonzero;stroke:none;stroke-width:1.56500006;stroke-linecap:butt;stroke-linejoin:miter;stroke-miterlimit:4;stroke-dasharray:none;stroke-dashoffset:0;stroke-opacity:1;paint-order:stroke fill markers"
       d="m 138.50421,114.70649 c -0.0839,-0.21852 -0.21764,-1.85041 -0.29729,-3.62642 l -0.14483,-3.2291 5.39134,-3.50349 c 2.96524,-1.92692 5.44116,-3.50349 5.50205,-3.50349 0.0609,0 0.0327,0.85744 -0.0627,1.90541 -0.0954,1.04797 -0.18133,2.24515 -0.19095,2.66039 -0.0152,0.65726 -0.64234,1.3335 -4.84491,5.2245 -2.65507,2.45824 -4.91129,4.46952 -5.0138,4.46952 -0.10252,0 -0.25501,-0.17879 -0.33886,-0.39732 z"
       id="path1857"
       inkscape:connector-curvature="0" />
    <path
       style="opacity:1;fill:#55d400;fill-opacity:1;fill-rule:nonzero;stroke:none;stroke-width:1.56500006;stroke-linecap:butt;stroke-linejoin:miter;stroke-miterlimit:4;stroke-dasharray:none;stroke-dashoffset:0;stroke-opacity:1;paint-order:stroke fill markers"
       d="m 156.55177,115.36814 c 0,-0.67118 0.47891,-1.12789 4.92069,-4.6926 2.70637,-2.17198 5.08506,-4.01213 5.28597,-4.08923 0.28915,-0.11095 0.36412,0.0831 0.35972,0.93104 l -0.006,1.0712 -4.93602,3.56496 c -6.09217,4.39997 -5.62481,4.13287 -5.62481,3.21463 z"
       id="path1859"
       inkscape:connector-curvature="0" />
    <path
       style="opacity:1;fill:#55d400;fill-opacity:1;fill-rule:nonzero;stroke:none;stroke-width:1.56500006;stroke-linecap:butt;stroke-linejoin:miter;stroke-miterlimit:4;stroke-dasharray:none;stroke-dashoffset:0;stroke-opacity:1;paint-order:stroke fill markers"
       d="m 153.10975,128.14603 c 0,-0.23669 12.86069,-11.86609 13.29021,-12.0178 0.32935,-0.11633 0.28834,0.42303 -0.13837,1.8198 -0.3565,1.16692 -0.58702,1.38558 -6.13821,5.82231 -4.06876,3.25192 -5.9513,4.60986 -6.39072,4.60986 -0.3426,0 -0.62291,-0.10538 -0.62291,-0.23417 z"
       id="path1861"
       inkscape:connector-curvature="0" />
    <path
       style="opacity:1;fill:#55d400;fill-opacity:1;fill-rule:nonzero;stroke:none;stroke-width:1.56500006;stroke-linecap:butt;stroke-linejoin:miter;stroke-miterlimit:4;stroke-dasharray:none;stroke-dashoffset:0;stroke-opacity:1;paint-order:stroke fill markers"
       d="m 148.43842,120.9116 c 0,-0.0511 0.19362,-0.24466 0.43026,-0.43025 0.38994,-0.30581 0.39864,-0.29712 0.0928,0.0928 -0.32118,0.40954 -0.52308,0.53977 -0.52308,0.33742 z"
       id="path1863"
       inkscape:connector-curvature="0" />
    <path
       style="opacity:1;fill:#55d400;fill-opacity:1;fill-rule:nonzero;stroke:none;stroke-width:1.56500006;stroke-linecap:butt;stroke-linejoin:miter;stroke-miterlimit:4;stroke-dasharray:none;stroke-dashoffset:0;stroke-opacity:1;paint-order:stroke fill markers"
       d="m 173.7619,99.18212 c 0,-0.68834 0.13923,-1.01124 0.54537,-1.26488 0.52382,-0.32714 4.12596,-1.52395 4.12596,-1.37086 0,0.12598 -4.3611,3.56003 -4.52109,3.56003 -0.0826,0 -0.15024,-0.41593 -0.15024,-0.92429 z"
       id="path1865"
       inkscape:connector-curvature="0" />
    <path
       style="opacity:1;fill:#55d400;fill-opacity:1;fill-rule:nonzero;stroke:none;stroke-width:1.56500006;stroke-linecap:butt;stroke-linejoin:miter;stroke-miterlimit:4;stroke-dasharray:none;stroke-dashoffset:0;stroke-opacity:1;paint-order:stroke fill markers"
       d="m 181.13768,101.08985 c 0,-0.54089 -0.0597,-0.98344 -0.13273,-0.98344 -0.073,0 -0.58158,0.229 -1.13019,0.50887 -1.03902,0.53007 -1.54693,0.46371 -0.93518,-0.12219 0.19478,-0.18655 2.89879,-2.17651 6.00891,-4.422127 l 5.65476,-4.082949 0.0778,0.8877 c 0.0428,0.48823 0.0428,0.90945 0,0.93603 -0.77451,0.48126 -7.04749,6.401926 -6.95,6.559656 0.0752,0.12161 -0.0109,0.16449 -0.19118,0.0953 -0.1803,-0.0692 -0.70561,0.26399 -1.16736,0.7404 -0.46175,0.4764 -0.92848,0.86619 -1.03718,0.86619 -0.10869,0 -0.19762,-0.44255 -0.19762,-0.98344 z"
       id="path1867"
       inkscape:connector-curvature="0" />
    <path
       style="opacity:1;fill:#55d400;fill-opacity:1;fill-rule:nonzero;stroke:none;stroke-width:1.56500006;stroke-linecap:butt;stroke-linejoin:miter;stroke-miterlimit:4;stroke-dasharray:none;stroke-dashoffset:0;stroke-opacity:1;paint-order:stroke fill markers"
       d="m 181.08245,111.23548 -0.0677,-3.86834 4.70784,-3.75329 c 2.58931,-2.06431 4.77439,-3.75329 4.85572,-3.75329 0.0813,0 0.14787,1.0575 0.14787,2.35 v 2.35 l -4.58641,5.27163 c -2.52252,2.89939 -4.67713,5.27162 -4.78801,5.27162 -0.11087,0 -0.23206,-1.74075 -0.2693,-3.86833 z"
       id="path1869"
       inkscape:connector-curvature="0" />
    <path
       style="opacity:1;fill:#55d400;fill-opacity:1;fill-rule:nonzero;stroke:none;stroke-width:1.56500006;stroke-linecap:butt;stroke-linejoin:miter;stroke-miterlimit:4;stroke-dasharray:none;stroke-dashoffset:0;stroke-opacity:1;paint-order:stroke fill markers"
       d="m 181.149,124.0162 0.0113,-3.87228 4.56233,-3.44202 c 2.50929,-1.89312 4.6616,-3.47891 4.78292,-3.52398 0.12377,-0.046 0.22059,1.46606 0.22059,3.44491 v 3.52686 l -3.87507,3.86939 c -3.61962,3.61431 -3.93568,3.8694 -4.79425,3.8694 h -0.91918 z"
       id="path1871"
       inkscape:connector-curvature="0" />
    <path
       style="opacity:1;fill:#55d400;fill-opacity:1;fill-rule:nonzero;stroke:none;stroke-width:1.56500006;stroke-linecap:butt;stroke-linejoin:miter;stroke-miterlimit:4;stroke-dasharray:none;stroke-dashoffset:0;stroke-opacity:1;paint-order:stroke fill markers"
       d="m 187.77587,127.67743 c 0,-0.19709 2.54558,-2.00168 2.82359,-2.00168 0.0697,0 0.12671,0.49787 0.12671,1.10637 v 1.10636 h -1.47515 c -0.81133,0 -1.47515,-0.095 -1.47515,-0.21105 z"
       id="path1873"
       inkscape:connector-curvature="0" />
    <path
       style="opacity:1;fill:#55d400;fill-opacity:1;fill-rule:nonzero;stroke:none;stroke-width:1.56500006;stroke-linecap:butt;stroke-linejoin:miter;stroke-miterlimit:4;stroke-dasharray:none;stroke-dashoffset:0;stroke-opacity:1;paint-order:stroke fill markers"
       d="m 203.13409,107.46929 c -0.10671,-0.17265 -0.23635,-1.09781 -0.28811,-2.05591 l -0.0941,-1.74201 1.54732,-1.13644 c 0.85102,-0.62504 3.18526,-2.37995 5.1872,-3.89979 2.00194,-1.51984 3.68009,-2.723147 3.72923,-2.674007 0.0491,0.0491 -0.0285,0.604357 -0.17257,1.233827 -0.23753,1.03802 -0.70162,1.58379 -4.98843,5.86637 -3.29055,3.28731 -4.78547,4.6265 -4.92053,4.40796 z"
       id="path1875"
       inkscape:connector-curvature="0" />
    <path
       style="opacity:1;fill:#55d400;fill-opacity:1;fill-rule:nonzero;stroke:none;stroke-width:1.56500006;stroke-linecap:butt;stroke-linejoin:miter;stroke-miterlimit:4;stroke-dasharray:none;stroke-dashoffset:0;stroke-opacity:1;paint-order:stroke fill markers"
       d="m 210.98661,115.34213 c -1.40887,-0.27932 -2.86364,-0.92122 -2.76417,-1.21965 0.046,-0.13791 1.23707,-1.01877 2.64688,-1.95746 l 2.5633,-1.70671 0.8562,0.75175 c 0.73682,0.64694 0.99344,0.73335 1.84042,0.61975 0.54131,-0.0726 1.26598,-0.34239 1.61037,-0.59951 0.83426,-0.62286 1.69944,-2.36505 1.9023,-3.83062 l 0.16456,-1.18887 4.57539,-3.05523 4.57539,-3.05523 0.32757,1.04793 c 0.18016,0.57637 0.34612,1.60938 0.36879,2.2956 l 0.0412,1.24766 -4.87669,5.32907 c -2.68217,2.93098 -4.99158,5.32906 -5.13202,5.32906 -0.15891,0 -0.21335,-0.50625 -0.14415,-1.34065 0.0762,-0.91903 0.0278,-1.29032 -0.15395,-1.18058 -0.14582,0.088 -0.79366,0.53792 -1.43963,0.99972 -2.05805,1.4713 -4.49929,2.00219 -6.96178,1.51397 z"
       id="path1877"
       inkscape:connector-curvature="0" />
    <path
       style="opacity:1;fill:#55d400;fill-opacity:1;fill-rule:nonzero;stroke:none;stroke-width:1.56500006;stroke-linecap:butt;stroke-linejoin:miter;stroke-miterlimit:4;stroke-dasharray:none;stroke-dashoffset:0;stroke-opacity:1;paint-order:stroke fill markers"
       d="m 212.85349,128.14269 c 0,-0.274 16.47295,-14.02231 16.80125,-14.02231 0.5879,0 -1.06562,5.17693 -2.3287,7.29084 -1.37337,2.2985 -3.54196,4.30998 -5.89196,5.46512 -1.13593,0.55836 -2.66127,1.12515 -3.38965,1.25953 -1.6987,0.3134 -5.19094,0.31799 -5.19094,0.007 z"
       id="path1879"
       inkscape:connector-curvature="0" />
    <path
       style="opacity:1;fill:#55d400;fill-opacity:1;fill-rule:nonzero;stroke:none;stroke-width:1.56500006;stroke-linecap:butt;stroke-linejoin:miter;stroke-miterlimit:4;stroke-dasharray:none;stroke-dashoffset:0;stroke-opacity:1;paint-order:stroke fill markers"
       d="m 207.56751,126.94511 c -2.0274,-1.23639 -3.07323,-3.46702 -3.07323,-6.55485 v -1.75421 l 1.65955,-0.31594 c 0.91275,-0.17377 1.89847,-0.36951 2.19048,-0.43497 0.51596,-0.11566 0.5302,-0.0543 0.50496,2.17625 -0.0287,2.54179 0.36132,3.75212 1.49722,4.64562 l 0.62679,0.49303 -1.07796,1.09836 c -0.59288,0.6041 -1.19322,1.09795 -1.33409,1.09745 -0.14088,-5.3e-4 -0.58805,-0.20334 -0.99372,-0.45074 z"
       id="path1881"
       inkscape:connector-curvature="0" />
    <path
       style="opacity:1;fill:#55d400;fill-opacity:1;fill-rule:nonzero;stroke:none;stroke-width:1.56500006;stroke-linecap:butt;stroke-linejoin:miter;stroke-miterlimit:4;stroke-dasharray:none;stroke-dashoffset:0;stroke-opacity:1;paint-order:stroke fill markers"
       d="m 217.06306,93.488934 c -0.44075,-0.27524 -0.26586,-0.52794 0.94715,-1.36856 1.34934,-0.93509 1.55959,-0.58071 0.36305,0.61193 -0.67846,0.67625 -1.07355,0.90441 -1.3102,0.75663 z"
       id="path1883"
       inkscape:connector-curvature="0" />
    <path
       style="opacity:1;fill:#55d400;fill-opacity:1;fill-rule:nonzero;stroke:none;stroke-width:1.56500006;stroke-linecap:butt;stroke-linejoin:miter;stroke-miterlimit:4;stroke-dasharray:none;stroke-dashoffset:0;stroke-opacity:1;paint-order:stroke fill markers"
       d="m 110.65577,106.4219 c -2.97345,-0.9768 -3.05722,-1.28183 -0.72948,-2.65641 0.96592,-0.5704 1.99117,-1.18805 2.27833,-1.37256 0.50865,-0.32683 0.52904,-0.28931 0.79063,1.45491 0.14768,0.98472 0.34145,2.14997 0.43059,2.58944 0.19646,0.96858 0.22572,0.96875 -2.77007,-0.0154 z"
       id="path1885"
       inkscape:connector-curvature="0" />
    <path
       style="opacity:1;fill:#55d400;fill-opacity:1;fill-rule:nonzero;stroke:none;stroke-width:5.91496086;stroke-linecap:butt;stroke-linejoin:miter;stroke-miterlimit:4;stroke-dasharray:none;stroke-dashoffset:0;stroke-opacity:1;paint-order:stroke fill markers"
       d="m 406.03995,145.08787 c 0.0137,-5.20493 0.56174,-10.30645 1.21792,-11.33672 1.29762,-2.0374 82.32851,-58.790522 85.89255,-60.158171 1.19851,-0.459913 2.17912,-0.0527 2.17912,0.904927 0,3.044925 -10.01341,13.315563 -28.60035,29.335054 -9.92474,8.55383 -18.12841,16.12063 -18.23035,16.81511 -0.10195,0.69448 -2.21227,3.12839 -4.6896,5.40868 -2.47732,2.28029 -3.59078,3.67853 -2.47435,3.10719 3.65437,-1.87014 2.13879,0.62657 -4.05975,6.68785 -3.34929,3.27512 -4.26274,4.56378 -2.02987,2.86368 l 4.05974,-3.0911 -3.05885,3.61548 c -1.68237,1.98851 -3.57285,3.29781 -4.20108,2.90954 -1.81347,-1.12079 -8.32496,4.08505 -7.26162,5.80557 0.5279,0.85416 0.0253,1.35223 -1.11695,1.10681 -1.14222,-0.24541 -2.10998,0.63689 -2.15057,1.96067 -0.052,1.69628 -2.35111,2.5725 -7.78734,2.96789 l -7.71352,0.56103 z"
       id="path2104"
       inkscape:connector-curvature="0"
       transform="matrix(0.26458333,0,0,0.26458333,0,87)" />
  </g>
</svg>
